<svg width="40" height="40" viewBox="0 0 40 40" fill="none" xmlns="http://www.w3.org/2000/svg">
<circle opacity="0.1" cx="20" cy="20" r="20" fill="#00CC99"/>
<path d="M12.3091 24V14.13H18.6931V15.306H13.7091V18.4H18.3991V19.576H13.7091V22.824H18.6931V24H12.3091ZM24.9499 24.126C23.9513 24.126 23.0973 23.9207 22.3879 23.51C21.6786 23.0993 21.1326 22.516 20.7499 21.76C20.3766 20.9947 20.1899 20.094 20.1899 19.058C20.1899 18.022 20.3766 17.126 20.7499 16.37C21.1326 15.614 21.6786 15.0307 22.3879 14.62C23.0973 14.2093 23.9513 14.004 24.9499 14.004C25.6219 14.004 26.2473 14.1113 26.8259 14.326C27.4139 14.5313 27.9039 14.83 28.2959 15.222L27.7919 16.384C27.3626 16.0013 26.9193 15.726 26.4619 15.558C26.0139 15.3807 25.5239 15.292 24.9919 15.292C23.9279 15.292 23.1159 15.6187 22.5559 16.272C21.9959 16.9253 21.7159 17.854 21.7159 19.058C21.7159 20.262 21.9959 21.1953 22.5559 21.858C23.1159 22.5113 23.9279 22.838 24.9919 22.838C25.5239 22.838 26.0139 22.754 26.4619 22.586C26.9193 22.4087 27.3626 22.1287 27.7919 21.746L28.2959 22.908C27.9039 23.2907 27.4139 23.5893 26.8259 23.804C26.2473 24.0187 25.6219 24.126 24.9499 24.126Z" fill="#00CC99"/>
</svg>
