<svg width="22" height="22" viewBox="0 0 22 22" fill="none" xmlns="http://www.w3.org/2000/svg">
<path d="M5.5 16.5L9.02 9.02L16.5 5.5L12.98 12.98L5.5 16.5ZM11 10.01C10.7374 10.01 10.4856 10.1143 10.3 10.3C10.1143 10.4856 10.01 10.7374 10.01 11C10.01 11.2626 10.1143 11.5144 10.3 11.7C10.4856 11.8857 10.7374 11.99 11 11.99C11.2626 11.99 11.5144 11.8857 11.7 11.7C11.8857 11.5144 11.99 11.2626 11.99 11C11.99 10.7374 11.8857 10.4856 11.7 10.3C11.5144 10.1143 11.2626 10.01 11 10.01ZM11 0C12.4445 0 13.8749 0.284523 15.2095 0.837325C16.5441 1.39013 17.7567 2.20038 18.7782 3.22183C19.7996 4.24327 20.6099 5.4559 21.1627 6.79048C21.7155 8.12506 22 9.55546 22 11C22 13.9174 20.8411 16.7153 18.7782 18.7782C16.7153 20.8411 13.9174 22 11 22C9.55546 22 8.12506 21.7155 6.79048 21.1627C5.4559 20.6099 4.24327 19.7996 3.22183 18.7782C1.15893 16.7153 0 13.9174 0 11C0 8.08262 1.15893 5.28473 3.22183 3.22183C5.28473 1.15893 8.08262 0 11 0ZM11 2.2C8.66609 2.2 6.42778 3.12714 4.77746 4.77746C3.12714 6.42778 2.2 8.66609 2.2 11C2.2 13.3339 3.12714 15.5722 4.77746 17.2225C6.42778 18.8729 8.66609 19.8 11 19.8C13.3339 19.8 15.5722 18.8729 17.2225 17.2225C18.8729 15.5722 19.8 13.3339 19.8 11C19.8 8.66609 18.8729 6.42778 17.2225 4.77746C15.5722 3.12714 13.3339 2.2 11 2.2Z" fill="#C9CED6"/>
</svg>
