<svg width="16" height="16" viewBox="0 0 16 16" fill="none" xmlns="http://www.w3.org/2000/svg">
<path d="M5.71423 1H1.71423C1.16195 1 0.714233 1.44772 0.714233 2V6C0.714233 6.55228 1.16195 7 1.71423 7H5.71423C6.26652 7 6.71423 6.55228 6.71423 6V2C6.71423 1.44772 6.26652 1 5.71423 1Z" stroke="#9798B4" stroke-width="1.4"/>
<path d="M13.7142 1H9.71423C9.16195 1 8.71423 1.44772 8.71423 2V6C8.71423 6.55228 9.16195 7 9.71423 7H13.7142C14.2665 7 14.7142 6.55228 14.7142 6V2C14.7142 1.44772 14.2665 1 13.7142 1Z" stroke="#9798B4" stroke-width="1.4"/>
<path d="M13.7142 9H9.71423C9.16195 9 8.71423 9.44772 8.71423 10V14C8.71423 14.5523 9.16195 15 9.71423 15H13.7142C14.2665 15 14.7142 14.5523 14.7142 14V10C14.7142 9.44772 14.2665 9 13.7142 9Z" stroke="#9798B4" stroke-width="1.4"/>
<path d="M5.71423 9H1.71423C1.16195 9 0.714233 9.44772 0.714233 10V14C0.714233 14.5523 1.16195 15 1.71423 15H5.71423C6.26652 15 6.71423 14.5523 6.71423 14V10C6.71423 9.44772 6.26652 9 5.71423 9Z" stroke="#9798B4" stroke-width="1.4"/>
</svg>
