<svg width="24" height="25" viewBox="0 0 24 25" fill="none" xmlns="http://www.w3.org/2000/svg">
<g clip-path="url(#clip0_348_1439)">
<path d="M16 22.0126V18.1426C16.0375 17.6658 15.9731 17.1864 15.811 16.7364C15.6489 16.2864 15.3929 15.8761 15.06 15.5326C18.2 15.1826 21.5 13.9926 21.5 8.53263C21.4997 7.13646 20.9627 5.79383 20 4.78263C20.4559 3.56114 20.4236 2.21098 19.91 1.01263C19.91 1.01263 18.73 0.662633 16 2.49263C13.708 1.87145 11.292 1.87145 9 2.49263C6.27 0.662633 5.09 1.01263 5.09 1.01263C4.57638 2.21098 4.54414 3.56114 5 4.78263C4.03013 5.80133 3.49252 7.1561 3.5 8.56263C3.5 13.9826 6.8 15.1726 9.94 15.5626C9.611 15.9026 9.35726 16.308 9.19531 16.7526C9.03335 17.1971 8.96681 17.6707 9 18.1426V22.0126M9 19.0126C4 20.5126 4 16.5126 2 16.0126L9 19.0126Z" stroke="white" stroke-linecap="round" stroke-linejoin="round"/>
</g>
<defs>
<clipPath id="clip0_348_1439">
<rect width="24" height="24" fill="white" transform="translate(0 0.0126953)"/>
</clipPath>
</defs>
</svg>
