<svg width="24" height="25" viewBox="0 0 24 25" fill="none" xmlns="http://www.w3.org/2000/svg">
<path d="M22.6499 14.4027L11.9999 22.1427L1.3499 14.4027C1.20713 14.2977 1.10122 14.1502 1.04733 13.9813C0.99345 13.8125 0.994348 13.631 1.0499 13.4627L2.2699 9.68266L4.7099 2.17266C4.73357 2.11146 4.77124 2.05667 4.8199 2.01266C4.89914 1.94028 5.00258 1.90015 5.1099 1.90015C5.21722 1.90015 5.32066 1.94028 5.3999 2.01266C5.45128 2.06232 5.48914 2.12428 5.5099 2.19266L7.9499 9.68266H16.0499L18.4899 2.17266C18.5136 2.11146 18.5512 2.05667 18.5999 2.01266C18.6791 1.94028 18.7826 1.90015 18.8899 1.90015C18.9972 1.90015 19.1007 1.94028 19.1799 2.01266C19.2313 2.06232 19.2691 2.12428 19.2899 2.19266L21.7299 9.70266L22.9999 13.4627C23.0504 13.6361 23.0437 13.8213 22.9806 13.9906C22.9176 14.16 22.8016 14.3045 22.6499 14.4027V14.4027Z" stroke="white" stroke-linecap="round" stroke-linejoin="round"/>
</svg>
