<svg width="22" height="22" viewBox="0 0 22 22" fill="none" xmlns="http://www.w3.org/2000/svg">
<path fill-rule="evenodd" clip-rule="evenodd" d="M5.7619 1.03662C3.14512 1.03662 1.0238 3.15794 1.0238 5.77472V16.2509C1.0238 18.8677 3.14512 20.989 5.7619 20.989H16.2381C18.8549 20.989 20.9762 18.8677 20.9762 16.2509V5.77472C20.9762 3.15794 18.8549 1.03662 16.2381 1.03662H5.7619ZM0.0238037 5.77472C0.0238037 2.60565 2.59284 0.0366211 5.7619 0.0366211H16.2381C19.4072 0.0366211 21.9762 2.60565 21.9762 5.77472V16.2509C21.9762 19.42 19.4072 21.989 16.2381 21.989H5.7619C2.59284 21.989 0.0238037 19.42 0.0238037 16.2509V5.77472ZM11.5866 7.31673C10.8188 7.20287 10.0346 7.33402 9.34559 7.69154C8.65658 8.04905 8.09785 8.61472 7.74886 9.30809C7.39986 10.0015 7.27839 10.7872 7.40171 11.5536C7.52503 12.32 7.88687 13.028 8.43576 13.5768C8.98464 14.1257 9.69263 14.4876 10.459 14.6109C11.2254 14.7342 12.0112 14.6127 12.7045 14.2638C13.3979 13.9148 13.9636 13.356 14.3211 12.667C14.6786 11.978 14.8097 11.1938 14.6959 10.426C14.5797 9.64272 14.2148 8.91761 13.6549 8.35773C13.095 7.79784 12.3699 7.43288 11.5866 7.31673ZM8.88502 6.80391C9.76073 6.34953 10.7574 6.18283 11.7333 6.32755C12.7288 6.47516 13.6504 6.93903 14.362 7.65062C15.0736 8.36222 15.5374 9.28381 15.6851 10.2793C15.8298 11.2552 15.6631 12.2519 15.2087 13.1276C14.7543 14.0033 14.0354 14.7134 13.1541 15.157C12.2729 15.6005 11.2742 15.7549 10.3001 15.5982C9.32609 15.4415 8.42627 14.9816 7.72865 14.284C7.03103 13.5863 6.57115 12.6865 6.41441 11.7125C6.25767 10.7384 6.41206 9.73975 6.85562 8.8585C7.29918 7.97725 8.00931 7.2583 8.88502 6.80391ZM16.7619 4.75091C16.4858 4.75091 16.2619 4.97476 16.2619 5.25091C16.2619 5.52705 16.4858 5.75091 16.7619 5.75091H16.7719C17.048 5.75091 17.2719 5.52705 17.2719 5.25091C17.2719 4.97476 17.048 4.75091 16.7719 4.75091H16.7619Z" fill="white"/>
</svg>
