<svg width="40" height="40" viewBox="0 0 40 40" fill="none" xmlns="http://www.w3.org/2000/svg">
<circle opacity="0.1" cx="20" cy="20" r="20" fill="#5458F7"/>
<path d="M16.0417 27.1666H13.6167C13.1879 27.1666 12.7767 26.9963 12.4735 26.6931C12.1703 26.39 12 25.9787 12 25.55V19.8917C12 19.4629 12.1703 19.0517 12.4735 18.7485C12.7767 18.4453 13.1879 18.275 13.6167 18.275H16.0417M21.7 16.6583V13.425C21.7 12.7818 21.4445 12.165 20.9897 11.7103C20.5349 11.2555 19.9181 11 19.275 11L16.0417 18.275V27.1666H25.1596C25.5495 27.1711 25.9279 27.0344 26.225 26.7819C26.522 26.5294 26.7179 26.178 26.7763 25.7925L27.8918 18.5175C27.927 18.2858 27.9114 18.0492 27.846 17.8241C27.7807 17.5991 27.6672 17.3909 27.5134 17.2141C27.3596 17.0372 27.1692 16.8959 26.9554 16.8C26.7416 16.704 26.5095 16.6557 26.2751 16.6583H21.7Z" stroke="#5458F7" stroke-width="1.61666" stroke-linecap="round" stroke-linejoin="round"/>
</svg>
