<svg width="14" height="16" viewBox="0 0 14 16" fill="none" xmlns="http://www.w3.org/2000/svg">
<path d="M12.1905 3.80952H10.6667C10.6667 1.67619 8.99048 0 6.85714 0C4.72381 0 3.04762 1.67619 3.04762 3.80952H1.52381C0.685714 3.80952 0 4.49524 0 5.33333V14.4762C0 15.3143 0.685714 16 1.52381 16H12.1905C13.0286 16 13.7143 15.3143 13.7143 14.4762V5.33333C13.7143 4.49524 13.0286 3.80952 12.1905 3.80952ZM6.85714 1.52381C8.15238 1.52381 9.14286 2.51429 9.14286 3.80952H4.57143C4.57143 2.51429 5.5619 1.52381 6.85714 1.52381ZM12.1905 14.4762H1.52381V5.33333H12.1905V14.4762ZM6.85714 8.38095C5.5619 8.38095 4.57143 7.39048 4.57143 6.09524H3.04762C3.04762 8.22857 4.72381 9.90476 6.85714 9.90476C8.99048 9.90476 10.6667 8.22857 10.6667 6.09524H9.14286C9.14286 7.39048 8.15238 8.38095 6.85714 8.38095Z" fill="#9798B4"/>
</svg>
