<svg width="22" height="21" viewBox="0 0 22 21" fill="none" xmlns="http://www.w3.org/2000/svg">
<path d="M18.3077 1H3.69231C2.97889 1.00203 2.29527 1.28633 1.7908 1.7908C1.28633 2.29527 1.00203 2.97889 1 3.69231V12.9231C1.00203 13.6365 1.28633 14.3201 1.7908 14.8246C2.29527 15.3291 2.97889 15.6134 3.69231 15.6154H5.61538V19.4615L10.1212 15.7048C10.1903 15.647 10.2776 15.6154 10.3678 15.6154H18.3077C19.0211 15.6134 19.7047 15.3291 20.2092 14.8246C20.7137 14.3201 20.998 13.6365 21 12.9231V3.69231C20.998 2.97889 20.7137 2.29527 20.2092 1.7908C19.7047 1.28633 19.0211 1.00203 18.3077 1V1Z" stroke="#C9CED6" stroke-width="2" stroke-linejoin="round"/>
<path d="M6.38453 9.84609C7.2342 9.84609 7.92299 9.1573 7.92299 8.30763C7.92299 7.45796 7.2342 6.76917 6.38453 6.76917C5.53486 6.76917 4.84607 7.45796 4.84607 8.30763C4.84607 9.1573 5.53486 9.84609 6.38453 9.84609Z" fill="#C9CED6"/>
<path d="M11 9.84609C11.8497 9.84609 12.5385 9.1573 12.5385 8.30763C12.5385 7.45796 11.8497 6.76917 11 6.76917C10.1503 6.76917 9.46155 7.45796 9.46155 8.30763C9.46155 9.1573 10.1503 9.84609 11 9.84609Z" fill="#C9CED6"/>
<path d="M15.6154 9.84609C16.465 9.84609 17.1538 9.1573 17.1538 8.30763C17.1538 7.45796 16.465 6.76917 15.6154 6.76917C14.7657 6.76917 14.0769 7.45796 14.0769 8.30763C14.0769 9.1573 14.7657 9.84609 15.6154 9.84609Z" fill="#C9CED6"/>
</svg>
