<svg width="16" height="13" viewBox="0 0 16 13" fill="none" xmlns="http://www.w3.org/2000/svg">
<path d="M14.4 10.4C14.4 10.6122 14.3157 10.8157 14.1657 10.9657C14.0157 11.1157 13.8122 11.2 13.6 11.2C13.3878 11.2 13.1843 11.1157 13.0343 10.9657C12.8843 10.8157 12.8 10.6122 12.8 10.4V0.8C12.8 0.587827 12.7157 0.384344 12.5657 0.234315C12.4157 0.0842856 12.2122 0 12 0H0.8C0.587827 0 0.384344 0.0842856 0.234315 0.234315C0.0842854 0.384344 0 0.587827 0 0.8V11.2C0 11.6243 0.168571 12.0313 0.468629 12.3314C0.768687 12.6314 1.17565 12.8 1.6 12.8H13.6C14.9232 12.8 16 11.7232 16 10.4V2.4H14.4V10.4ZM8 2.4H10.4V4H8V2.4ZM8 5.6H10.4V7.2H8V5.6ZM2.4 2.4H6.4V7.2H2.4V2.4ZM2.4 10.4V8.8H10.4V10.4H2.4Z" fill="#5458F7"/>
</svg>
