<svg width="24" height="25" viewBox="0 0 24 25" fill="none" xmlns="http://www.w3.org/2000/svg">
<path d="M5 5.5127C5 4.58444 5.36875 3.6942 6.02513 3.03782C6.6815 2.38144 7.57174 2.0127 8.5 2.0127H12V9.0127H8.5C7.57174 9.0127 6.6815 8.64395 6.02513 7.98757C5.36875 7.33119 5 6.44095 5 5.5127Z" stroke="white" stroke-linecap="round" stroke-linejoin="round"/>
<path d="M12 2.0127H15.5C15.9596 2.0127 16.4148 2.10323 16.8394 2.27912C17.264 2.45501 17.6499 2.71282 17.9749 3.03782C18.2999 3.36283 18.5577 3.74866 18.7336 4.1733C18.9095 4.59794 19 5.05307 19 5.5127C19 5.97232 18.9095 6.42745 18.7336 6.85209C18.5577 7.27673 18.2999 7.66256 17.9749 7.98757C17.6499 8.31257 17.264 8.57038 16.8394 8.74627C16.4148 8.92217 15.9596 9.0127 15.5 9.0127H12V2.0127Z" stroke="white" stroke-linecap="round" stroke-linejoin="round"/>
<path d="M12 12.5127C12 12.0531 12.0905 11.5979 12.2664 11.1733C12.4423 10.7487 12.7001 10.3628 13.0251 10.0378C13.3501 9.71282 13.736 9.45501 14.1606 9.27912C14.5852 9.10323 15.0404 9.0127 15.5 9.0127C15.9596 9.0127 16.4148 9.10323 16.8394 9.27912C17.264 9.45501 17.6499 9.71282 17.9749 10.0378C18.2999 10.3628 18.5577 10.7487 18.7336 11.1733C18.9095 11.5979 19 12.0531 19 12.5127C19 12.9723 18.9095 13.4274 18.7336 13.8521C18.5577 14.2767 18.2999 14.6626 17.9749 14.9876C17.6499 15.3126 17.264 15.5704 16.8394 15.7463C16.4148 15.9222 15.9596 16.0127 15.5 16.0127C15.0404 16.0127 14.5852 15.9222 14.1606 15.7463C13.736 15.5704 13.3501 15.3126 13.0251 14.9876C12.7001 14.6626 12.4423 14.2767 12.2664 13.8521C12.0905 13.4274 12 12.9723 12 12.5127V12.5127Z" stroke="white" stroke-linecap="round" stroke-linejoin="round"/>
<path d="M5 19.5127C5 18.5844 5.36875 17.6942 6.02513 17.0378C6.6815 16.3814 7.57174 16.0127 8.5 16.0127H12V19.5127C12 20.441 11.6313 21.3312 10.9749 21.9876C10.3185 22.6439 9.42826 23.0127 8.5 23.0127C7.57174 23.0127 6.6815 22.6439 6.02513 21.9876C5.36875 21.3312 5 20.441 5 19.5127Z" stroke="white" stroke-linecap="round" stroke-linejoin="round"/>
<path d="M5 12.5127C5 11.5844 5.36875 10.6942 6.02513 10.0378C6.6815 9.38144 7.57174 9.0127 8.5 9.0127H12V16.0127H8.5C7.57174 16.0127 6.6815 15.6439 6.02513 14.9876C5.36875 14.3312 5 13.441 5 12.5127Z" stroke="white" stroke-linecap="round" stroke-linejoin="round"/>
</svg>
