<svg width="201" height="157" viewBox="0 0 201 157" fill="none" xmlns="http://www.w3.org/2000/svg">
<ellipse opacity="0.1" cx="70.2613" cy="146.832" rx="34.9388" ry="6.60804" fill="#3652E3"/>
<path opacity="0.1" d="M116.374 22.0658C103.534 21.622 91.3041 17.4821 79.626 12.9539C67.948 8.42577 56.3811 3.41032 43.848 1.01154C35.7868 -0.531529 26.567 -0.751401 20.0733 3.55888C13.8216 7.71862 11.8018 14.8793 10.7166 21.5289C9.89916 26.5325 9.41902 31.7995 11.657 36.4842C13.2125 39.7367 15.9703 42.4703 17.8789 45.5861C24.5195 56.4252 19.8253 69.7918 12.6312 80.3754C9.25832 85.3393 5.33985 90.0814 2.73481 95.3603C0.129778 100.639 -1.07453 106.708 1.20512 112.108C3.46295 117.456 8.84564 121.466 14.6767 124.288C26.5194 130.023 40.4692 131.663 54.0816 132.594C84.2052 134.65 114.487 133.761 144.69 132.867C155.868 132.538 167.094 132.204 178.09 130.478C184.197 129.52 190.5 127.998 194.934 124.326C200.561 119.665 201.956 111.773 198.184 105.93C191.859 96.1249 174.376 93.6905 169.949 83.1703C167.517 77.3784 170.015 70.9288 173.552 65.5588C181.139 54.0363 193.855 43.9281 194.523 30.7596C194.984 21.7151 188.871 12.6568 179.419 8.37625C169.513 3.88968 155.773 4.45421 148.468 11.8803C140.939 19.5184 127.713 22.4599 116.374 22.0658Z" fill="#3652E3"/>
<path fill-rule="evenodd" clip-rule="evenodd" d="M100.093 67.5634L106.17 71.6538L100.093 72.6561V86.9973L94.2226 88.1065L91.3676 88.6453L84.7687 89.8932L77.4456 89.1544L74.2593 88.8335L73.2891 88.7345L70.1027 88.4076L66.591 88.0531V105.633C66.591 105.633 67.0314 110.23 66.591 111.179C66.3212 111.762 65.3708 112.706 64.6804 113.346C64.6841 113.998 64.7345 114.649 64.8311 115.293C65.3053 117.425 63.2062 119.425 63.2062 119.425C63.0145 119.452 62.8275 119.505 62.6507 119.584L62.1864 130.227C62.1864 130.227 61.373 132.792 61.8134 133.525C61.9349 133.728 62.0794 133.931 62.2194 134.128C62.5115 134.539 62.7836 134.921 62.7836 135.219C63.6348 135.526 66.0017 136.427 66.7517 137.231C67.2824 137.803 67.6795 137.761 68.2583 137.7C68.6338 137.661 69.0856 137.614 69.7 137.72C69.76 137.731 69.82 137.744 69.8826 137.757C69.9028 137.761 69.9232 137.766 69.944 137.77C70.006 137.784 70.0668 137.798 70.1264 137.811C71.4929 138.118 72.2514 138.288 72.7058 139.446C72.8007 139.7 72.877 139.961 72.9339 140.226C73.2468 141.634 71.8178 142.014 70.38 142.396C69.83 142.542 69.2787 142.688 68.823 142.892C67.1763 143.631 63.4661 142.892 63.4661 142.892L61.9007 142.795L59.2719 142.629C59.4777 142.816 59.7332 142.941 60.008 142.987C59.9954 143.026 59.9812 143.063 59.9671 143.101C59.9545 143.134 59.9419 143.168 59.9306 143.201C60.9008 143.542 63.7498 144.618 64.6446 145.578C65.2695 146.253 65.7372 146.203 66.4189 146.132C66.8607 146.085 67.3923 146.029 68.1147 146.155C68.204 146.171 68.3012 146.19 68.4024 146.212C68.469 146.227 68.5344 146.242 68.5986 146.257C70.2181 146.623 71.114 146.825 71.6503 148.193C71.7626 148.492 71.8528 148.798 71.9201 149.11C72.2875 150.768 70.6006 151.216 68.9093 151.666C68.2623 151.838 67.6146 152.01 67.081 152.25C65.1526 153.117 60.7877 152.25 60.7877 152.25L58.9445 152.135C56.5657 151.986 52.5559 151.731 51.1413 151.618C49.0759 151.449 49.5838 150.617 49.5838 150.617V146.656C49.5399 146.636 49.498 146.611 49.4589 146.583C48.7267 145.982 49.4589 134.19 49.4589 134.19C49.4589 134.19 51.2762 116.199 52.6968 115.4C53.5381 114.928 53.4066 114.385 53.2579 113.771C53.1556 113.349 53.0451 112.893 53.2384 112.403C53.7126 111.203 52.7662 107.939 52.7662 107.939C52.7662 107.939 52.3575 104.072 51.3437 102.208C50.3298 100.344 50.4628 95.2138 50.4628 95.2138C50.4628 95.2138 47.6256 91.474 46.7745 90.0161C45.9233 88.5582 45.3856 84.7609 45.584 81.8947C45.7209 79.9574 46.7546 77.1367 47.4113 75.5144C46.6316 75.6551 45.2428 75.768 44.4492 75.0826C43.4175 74.213 46.1177 71.0179 46.7903 70.2514C46.6945 69.4304 46.6587 68.6035 46.6832 67.7773L46.0245 61.7913C46.0245 61.7913 45.6178 58.3426 45.0087 56.4945C44.8459 55.9687 44.7284 55.4299 44.6575 54.8841C44.431 53.1952 44.5471 51.4782 44.9987 49.835C45.1918 49.1372 45.3142 48.4218 45.3638 47.6996C45.465 45.8496 51.2028 38.7047 52.6234 38.055C53.1769 37.804 53.6396 37.3891 53.9487 36.8665C54.0115 36.7181 54.0607 36.5643 54.0955 36.4069C54.1774 36.0137 54.3228 35.6364 54.5261 35.2898C55.2225 33.6219 56.4486 34.44 56.4486 34.44C56.4724 34.3924 56.4962 34.3449 56.518 34.2974C56.6629 33.9983 56.8057 33.6833 56.9446 33.3644C56.8262 33.426 56.6991 33.4694 56.5676 33.4931C56.217 33.5223 55.8657 33.445 55.5598 33.2713C55.3648 33.2018 55.2041 33.0599 55.1114 32.8751C55.0956 32.8279 55.0882 32.7783 55.0895 32.7285C55.0764 32.5201 55.2169 32.326 55.3607 32.1275C55.4778 31.9658 55.5971 31.8011 55.6371 31.6232C55.6645 31.467 55.6529 31.3065 55.6034 31.1558C55.6043 31.1597 55.6043 31.1637 55.6034 31.1677C55.5298 30.9628 55.4844 30.7489 55.4685 30.5318C55.4657 30.4593 55.4758 30.3869 55.4983 30.3179C55.5491 30.163 55.6606 30.0407 55.7728 29.9174C55.84 29.8437 55.9075 29.7696 55.9625 29.688C56.1768 29.3691 56.1689 28.9927 56.1411 28.5965V28.6084C56.1382 28.5719 56.1349 28.5352 56.1316 28.4984C56.1215 28.3859 56.1113 28.2727 56.1113 28.1608C56.0903 27.9076 56.1213 27.6528 56.2026 27.412C56.3114 27.1238 56.528 26.8983 56.7459 26.6715C56.9054 26.5055 57.0656 26.3388 57.1847 26.1463C57.2531 26.0313 57.3115 25.9107 57.3593 25.7857H57.3236L57.4049 24.0684C57.254 24.0462 57.1016 24.097 56.9942 24.205C56.9499 24.2646 56.917 24.3317 56.897 24.4031C56.8679 24.4876 56.8423 24.5739 56.8168 24.6602C56.804 24.7033 56.7912 24.7465 56.778 24.7894L56.7998 24.7656C56.7678 24.865 56.7267 24.9611 56.6768 25.0528L56.651 25.0885V25.1043C56.5362 25.3347 56.2975 25.4771 56.0399 25.4688C56.1381 25.2138 56.2047 24.9477 56.2383 24.6765C56.0254 24.766 55.7941 24.8034 55.5637 24.7854L55.5975 24.7319C55.6412 24.674 55.681 24.6131 55.7165 24.5497C55.8438 24.3267 55.9317 24.0835 55.9764 23.8307C55.9918 23.6237 56.0477 23.4218 56.1411 23.2364C56.1708 23.1769 56.2119 23.1237 56.2621 23.0799V23.1176C56.431 23.0264 56.6121 22.9597 56.7998 22.9195C57.0458 22.8275 57.2696 22.6104 57.4974 22.3894C57.6719 22.2201 57.8488 22.0485 58.0398 21.9291L58.0715 21.5963C59.5695 18.7479 64.8986 19.047 64.8986 19.047C73.0907 20.2969 73.8843 25.764 73.8843 26.8178C73.8843 27.8716 77.0587 29.1948 77.0587 29.1948C77.0587 29.1948 78.0627 29.4542 78.2174 29.8227C78.2174 29.8227 78.6539 30.3912 78.2571 30.9101C78.1856 31.0017 78.0998 31.0813 78.0031 31.1459C77.6234 31.3826 77.1971 31.5353 76.7532 31.5935C76.6594 31.6105 76.5647 31.6217 76.4695 31.6272H76.4199C76.3439 31.6312 76.2677 31.6312 76.1917 31.6272H76.1342C76.0491 31.6236 75.9643 31.615 75.8802 31.6015H75.8703C75.781 31.5876 75.6937 31.5698 75.6064 31.548L75.5628 31.5361C75.4914 31.5163 75.4239 31.4945 75.3545 31.4707L75.293 31.4489C75.2281 31.4225 75.162 31.3948 75.0946 31.3657L75.0549 31.3499C74.9755 31.3123 74.8962 31.2726 74.8188 31.231L74.795 31.2172C74.7439 31.1878 74.6915 31.156 74.6399 31.1246C74.6254 31.1158 74.6109 31.107 74.5966 31.0983L74.541 31.0627L74.3704 30.9458L74.3267 30.9141C74.1918 30.8111 74.0569 30.7022 73.9299 30.5893L73.8883 30.5516L73.7395 30.413C73.7272 30.3994 73.714 30.3868 73.6998 30.3753C73.5807 30.2585 73.4696 30.1396 73.3645 30.0227L73.3367 29.991C73.3234 29.9758 73.3101 29.9608 73.2968 29.9459C73.2686 29.9142 73.2407 29.8827 73.2137 29.8504L73.178 29.8088L73.0669 29.6721L73.049 29.6503C73.0172 29.6077 72.9864 29.5674 72.9567 29.5287C72.9051 29.4612 72.857 29.3983 72.8129 29.3354L72.8118 29.3348C72.4412 29.1369 72.0705 28.939 71.7038 28.7411C71.7062 28.7616 71.709 28.7821 71.7119 28.8028C71.7188 28.8523 71.7257 28.9022 71.7257 28.9511C71.7455 29.1234 71.7455 29.2978 71.7455 29.4721C71.7455 33.2455 68.7794 36.3317 65.0196 36.603C64.9125 36.7377 64.8133 36.8764 64.7141 37.019C64.1225 37.8691 63.592 38.7601 63.1269 39.6852L66.0236 43.1021L65.6664 46.3071C67.2179 48.6088 67.5711 52.0614 67.5711 54.6662C67.5731 55.2842 67.5552 55.8527 67.5294 56.3479C67.7866 57.9816 67.9529 59.6282 68.0274 61.2802L68.0989 62.8649L74.1204 62.1419L81.3403 66.1827L87.1079 61.7298L103.159 63.0075L100.093 67.5634ZM57.8374 24.1317L57.7586 24.1233C57.7852 24.1265 57.8116 24.1294 57.8374 24.1317ZM57.7586 24.1233C57.7318 24.1201 57.7046 24.1167 57.6773 24.1132C57.5945 24.1025 57.5101 24.0917 57.4287 24.0882L57.7586 24.1233Z" fill="url(#paint0_linear_348_122)"/>
<path d="M91.927 80.9656C89.943 83.8002 82.8103 82.2987 82.8103 82.2987L77.2828 77.1347L76.5388 76.4354L77.7868 73.7891C77.7868 73.7891 78.1836 73.898 78.8641 74.0921C82.4374 75.1281 93.6015 78.5827 91.927 80.9656Z" fill="#EFB7B9"/>
<path opacity="0.1" d="M78.8601 74.0921C78.6161 74.9399 77.9475 76.2096 77.2828 77.1347L76.5388 76.4354L77.7868 73.7891C77.7868 73.7891 78.1876 73.898 78.8601 74.0921Z" fill="black"/>
<path d="M59.9027 44.249C59.9027 44.249 54.8077 46.5052 55.0577 52.0455C55.2376 55.6149 55.6272 59.1707 56.2243 62.6945C56.2243 62.6945 55.1827 71.0318 59.5198 73.181C63.8569 75.3302 67.8706 77.0971 67.8706 77.0971C67.8706 77.0971 74.656 77.826 75.4992 78.1271C76.3424 78.4282 78.9772 73.8247 78.4912 73.1077C78.0051 72.3906 71.7772 70.8872 70.9836 69.6907C70.19 68.4943 68.3547 67.7555 68.3547 67.7555C68.3547 67.7555 66.46 66.6106 66.331 65.5766C66.2021 64.5426 66.702 63.772 66.829 63.3184C66.956 62.8648 67.2774 58.4852 67.2774 58.4852C67.2774 58.4852 69.4162 42.8961 59.9027 44.249Z" fill="#DCE6F2"/>
<path opacity="0.1" d="M63.2657 62.4667C63.2657 62.4667 56.2759 63.6354 56.9525 66.0777C56.9525 66.0777 59.4901 63.4412 63.2657 62.4667Z" fill="black"/>
<path opacity="0.1" d="M63.3193 63.4551C63.3193 63.4551 59.4762 66.5868 60.2281 66.7472C60.9801 66.9077 63.3193 63.4551 63.3193 63.4551Z" fill="black"/>
<path opacity="0.1" d="M65.1663 64.5466C65.1663 64.5466 64.1366 66.6523 64.7695 66.5096C65.4024 66.367 65.1663 64.5466 65.1663 64.5466Z" fill="black"/>
<path opacity="0.1" d="M79.1181 74.3161L78.6936 74.1952C78.8146 73.7991 78.8483 73.4782 78.7491 73.3296C78.263 72.6125 72.0391 71.1111 71.2475 69.9127C70.4558 68.7143 68.6186 67.9774 68.6186 67.9774C68.6186 67.9774 66.7239 66.8325 66.5949 65.7985C66.466 64.7645 66.9659 63.994 67.0929 63.5404C67.2199 63.0867 67.5413 58.7052 67.5413 58.7052C67.5413 58.7052 69.6741 43.118 60.1607 44.4709C60.1607 44.4709 55.0657 46.7291 55.3137 52.2695C55.4936 55.8389 55.8839 59.3947 56.4823 62.9184C56.4823 62.9184 55.4407 71.2557 59.7778 73.4049C64.1149 75.5541 68.1286 77.321 68.1286 77.321C68.1286 77.321 74.912 78.0479 75.7572 78.351C76.0766 78.4659 76.654 77.8736 77.2194 77.0595L77.5408 77.3586L83.0683 82.5206C83.0683 82.5206 90.2009 84.0241 92.185 81.1895C93.8615 78.8046 82.6993 75.3501 79.1181 74.3161Z" fill="black"/>
<path d="M56.9704 23.4543C56.7762 23.4922 56.5901 23.564 56.4208 23.6662C56.2224 23.8307 56.2224 24.1119 56.1728 24.3576C56.1145 24.6992 55.9788 25.0231 55.776 25.3044C56.0018 25.3209 56.2282 25.2836 56.4367 25.1954C56.4027 25.4666 56.3361 25.7326 56.2383 25.9878C56.4908 25.9942 56.7237 25.8524 56.8335 25.6253C56.9385 25.4021 57.0215 25.1692 57.0815 24.93C57.1001 24.8585 57.1325 24.7912 57.1767 24.7319C57.3593 24.516 57.6985 24.6131 57.9803 24.6408C58.4577 24.681 58.9195 24.4596 59.1866 24.0624C59.4861 23.6088 59.504 22.448 58.7897 22.3252C58.0438 22.2024 57.5795 23.2285 56.9704 23.4543Z" fill="#965D7B"/>
<g opacity="0.1">
<path d="M56.401 23.9099C56.4189 23.8128 56.4308 23.7118 56.4526 23.6147C56.2641 23.7792 56.2542 24.0585 56.2046 24.3061C56.1796 24.4489 56.1404 24.5889 56.0875 24.724C56.2437 24.4754 56.3502 24.1989 56.401 23.9099Z" fill="black"/>
<path d="M56.4645 25.5461C56.5633 25.2912 56.6299 25.0251 56.6629 24.7538C56.4642 24.8373 56.2492 24.8745 56.034 24.8627C55.9713 25.002 55.8949 25.1348 55.8058 25.2589C56.0308 25.2763 56.2566 25.2396 56.4645 25.1519C56.4315 25.4232 56.3649 25.6894 56.2661 25.9443C56.5185 25.9502 56.7511 25.8085 56.8613 25.5818C56.9107 25.4917 56.9506 25.3968 56.9803 25.2985C56.862 25.4636 56.6675 25.557 56.4645 25.5461Z" fill="black"/>
<path d="M58.2065 24.1992C57.9248 24.1714 57.5836 24.0744 57.401 24.2903C57.3576 24.35 57.3253 24.4171 57.3058 24.4884C57.2879 24.5399 57.2721 24.5934 57.2582 24.6468C57.4467 24.4983 57.7522 24.5775 58.0081 24.6033C58.4854 24.6422 58.9465 24.4211 59.2144 24.0249C59.2746 23.9287 59.3194 23.8238 59.3474 23.7139C59.0715 24.0548 58.644 24.2367 58.2065 24.1992Z" fill="black"/>
</g>
<path d="M62.9422 39.814L65.9679 43.4468L65.5731 47.1133L61.9165 41.3986L62.9422 39.814Z" fill="#DCE6F2"/>
<path opacity="0.1" d="M65.9659 43.4468L65.5949 46.8954L65.5711 47.1133L62.2716 41.9552L61.9165 41.3986L62.0197 41.2382L62.9403 39.814L63.1446 40.0596L65.9659 43.4468Z" fill="black"/>
<path d="M67.5373 34.8956C66.5135 35.1887 65.5354 36.195 64.6842 37.4172C64.1089 38.2604 63.5944 39.1435 63.1446 40.0596C62.8649 40.6182 62.6189 41.155 62.4145 41.6225L62.2716 41.9552C61.9264 42.7694 61.734 43.3141 61.734 43.3141C61.734 43.3141 53.897 37.431 55.1371 37.0349C55.5537 36.9022 56.1013 36.0108 56.6429 34.8877L56.7104 34.745C57.0536 34.024 57.3909 33.2198 57.6905 32.4631C58.3036 30.9082 58.7579 29.5573 58.7579 29.5573C58.7579 29.5573 70.6621 34.0042 67.5373 34.8956Z" fill="#EFB7B9"/>
<path d="M72.2256 29.2264C72.2256 29.2264 74.035 32.4948 76.4655 32.0491C78.8959 31.6034 77.896 30.2941 77.896 30.2941L72.2256 29.2264Z" fill="#444053"/>
<path d="M68.7198 142.361C67.1167 143.092 63.4919 142.361 63.4919 142.361L61.9642 142.266C59.9801 142.14 56.6589 141.926 55.4843 141.831C53.7701 141.69 54.1907 140.989 54.1907 140.989V136.752L62.5078 134.648C62.5078 134.648 65.7953 135.771 66.6961 136.752C67.5512 137.687 68.0512 136.968 69.5769 137.237C69.6523 137.251 69.7317 137.267 69.815 137.287C71.2633 137.617 72.049 137.748 72.5133 138.946C72.6066 139.198 72.6815 139.456 72.7375 139.719C73.166 141.648 70.3209 141.634 68.7198 142.361Z" fill="#A36468"/>
<path opacity="0.1" d="M72.5133 138.947C72.2152 139.132 71.902 139.293 71.5768 139.426C70.4856 139.923 69.4479 140.529 68.3448 140.999C67.2417 141.468 66.0533 141.803 64.8589 141.714C64.2339 141.668 63.595 141.516 62.9978 141.694C62.6285 141.836 62.2807 142.029 61.9642 142.266C59.9801 142.14 56.6589 141.926 55.4843 141.831C53.7701 141.69 54.1907 140.989 54.1907 140.989V140.494C54.2522 140.494 54.3217 140.476 54.401 140.47C54.8116 140.463 55.2205 140.524 55.6113 140.65C56.4724 140.884 57.3295 141.114 58.1905 141.343C58.3337 140.804 58.6923 140.347 59.1826 140.08C59.674 139.819 60.2256 139.693 60.7817 139.713C62.1169 139.731 63.3808 140.363 64.714 140.426C65.0868 140.46 65.4621 140.398 65.8033 140.244C65.9858 140.153 66.1465 140.02 66.3251 139.919C66.6108 139.781 66.9128 139.679 67.2238 139.616C68.0982 139.399 68.9566 139.122 69.7932 138.788C70.0312 138.695 70.309 138.527 70.2773 138.273C70.2356 137.936 69.7059 137.897 69.567 137.588C69.5173 137.475 69.5232 137.345 69.5829 137.237C69.6582 137.251 69.7376 137.267 69.8209 137.287C71.2633 137.617 72.049 137.748 72.5133 138.947Z" fill="black"/>
<path d="M67.0255 151.632C65.1407 152.491 60.875 151.632 60.875 151.632L59.0794 151.527C56.7541 151.378 52.8377 151.13 51.4548 151.014C49.437 150.847 49.933 150.023 49.933 150.023V145.03L59.7203 142.553C59.7203 142.553 63.5891 143.875 64.6486 145.03C65.6545 146.129 66.2358 145.283 68.0393 145.6C68.1286 145.616 68.2219 145.636 68.3191 145.657C70.0234 146.054 70.9479 146.202 71.4935 147.613C71.604 147.909 71.6922 148.213 71.7574 148.522C72.2494 150.792 68.9103 150.774 67.0255 151.632Z" fill="#A36468"/>
<path opacity="0.1" d="M71.4896 147.613C71.139 147.831 70.7706 148.02 70.3884 148.177C69.1048 148.761 67.8826 149.475 66.585 150.027C65.2875 150.58 63.8887 150.972 62.482 150.869C61.748 150.816 60.996 150.631 60.2996 150.845C59.8633 151.015 59.4526 151.244 59.0794 151.527C56.7541 151.378 52.8377 151.131 51.4548 151.014C49.437 150.847 49.933 150.023 49.933 150.023V149.441C50.0152 149.428 50.098 149.418 50.181 149.413C50.6644 149.404 51.1458 149.476 51.6056 149.625L54.6392 150.441C54.8099 149.805 55.2354 149.267 55.8157 148.954C56.394 148.646 57.0437 148.497 57.6985 148.522C59.2699 148.544 60.7559 149.286 62.3253 149.362C62.7624 149.401 63.2023 149.328 63.603 149.15C63.8193 149.041 63.9998 148.884 64.2181 148.767C64.5536 148.603 64.9091 148.484 65.2756 148.411C66.2987 148.153 67.3036 147.828 68.2834 147.436C68.5631 147.325 68.8905 147.127 68.8528 146.83C68.8032 146.434 68.1802 146.386 68.0155 146.022C67.9593 145.889 67.9666 145.737 68.0354 145.61C68.1246 145.626 68.2179 145.646 68.3151 145.667C70.0194 146.048 70.944 146.202 71.4896 147.613Z" fill="black"/>
<path d="M62.7597 117.365L62.23 129.811C62.23 129.811 61.4364 132.352 61.8669 133.079C62.2975 133.806 63.0236 134.531 62.7597 134.961C62.4959 135.391 59.3214 140.038 58.2957 138.255C57.2699 136.472 56.2581 128.747 56.2581 128.747L57.2044 119.206L62.7597 117.365Z" fill="#444053"/>
<path d="M65.0572 86.3574L66.5294 88.3224V105.413C66.5294 105.413 66.9599 109.969 66.5294 110.91C66.0988 111.851 63.9164 113.732 63.9164 113.732L62.0812 104.324L62.478 94.3699L65.0572 86.3574Z" fill="#444053"/>
<path opacity="0.1" d="M62.7597 117.365L62.23 129.811C62.23 129.811 61.4364 132.352 61.8669 133.079C62.2975 133.806 63.0236 134.531 62.7597 134.961C62.4959 135.391 59.3214 140.038 58.2957 138.255C57.2699 136.472 56.2581 128.747 56.2581 128.747L57.2044 119.206L62.7597 117.365Z" fill="black"/>
<path opacity="0.1" d="M65.0572 86.3574L66.5294 88.3224V105.413C66.5294 105.413 66.9599 109.969 66.5294 110.91C66.0988 111.851 63.9164 113.732 63.9164 113.732L62.0812 104.324L62.478 94.3699L65.0572 86.3574Z" fill="black"/>
<path d="M66.5295 79.0681V88.3126L64.8768 95.5089C64.8768 95.5089 64.347 112.875 64.8093 114.986C65.2716 117.098 63.2221 119.081 63.2221 119.081C63.2221 119.081 62.0317 119.214 62.0317 120.137C62.0317 121.06 60.0476 123.702 60.0476 123.702L60.1131 128.852C60.1131 128.852 60.9742 138.493 59.6508 140.341C58.3275 142.189 60.1131 142.455 60.1131 142.455C58.4604 147.868 50.5243 146.614 49.808 146.02C49.0918 145.426 49.808 133.739 49.808 133.739C49.808 133.739 51.5818 115.911 52.9706 115.119C54.3594 114.327 53.038 113.336 53.5003 112.148C53.9626 110.959 53.038 107.725 53.038 107.725C53.038 107.725 52.6412 103.894 51.6492 102.046C50.6572 100.198 50.7881 95.1128 50.7881 95.1128C50.7881 95.1128 48.0105 91.4146 47.1851 89.9626C46.3598 88.5107 45.8281 84.7471 46.0265 81.9066C46.1614 79.9872 47.1713 77.1922 47.8121 75.5838C48.1196 74.8133 48.3418 74.3141 48.3418 74.3141L48.5303 74.3636L59.3671 77.1962L66.5295 79.0681Z" fill="#444053"/>
<path opacity="0.1" d="M67.5373 34.8957C66.5136 35.1888 65.5355 36.1951 64.6843 37.4172H64.4621C61.9226 37.419 59.5763 36.0642 58.3116 33.8656C58.0519 33.4181 57.843 32.943 57.6886 32.4493C58.3017 30.8944 58.756 29.5435 58.756 29.5435C58.756 29.5435 70.6622 34.0043 67.5373 34.8957Z" fill="black"/>
<path d="M71.555 29.9435C71.5599 32.9136 69.7077 35.5712 66.9165 36.599C64.1253 37.6267 60.9883 36.8063 59.0603 34.5443C57.1323 32.2823 56.8231 29.0594 58.2858 26.4731C58.5008 26.0896 58.752 25.7275 59.0358 25.3916C59.5037 24.8351 60.0536 24.3528 60.6667 23.9614C62.7733 22.6249 65.4284 22.4922 67.6582 23.6119C69.8879 24.7317 71.3641 26.9392 71.5451 29.4245C71.5491 29.5988 71.555 29.7712 71.555 29.9435Z" fill="#EFB7B9"/>
<path opacity="0.1" d="M65.5949 46.8954L65.5711 47.1133L62.2716 41.9631C61.9264 42.7773 61.734 43.322 61.734 43.322C61.734 43.322 53.897 37.431 55.1371 37.0348C55.5537 36.9021 56.1013 36.0107 56.6429 34.8876L56.7104 34.745C57.2858 36.4564 60.6289 39.8773 62.0197 41.2481C62.1804 41.4065 62.3133 41.5373 62.4165 41.6323L62.6288 41.8304L62.7399 41.9413C63.2458 42.4623 65.3806 44.7601 65.5949 46.8954Z" fill="black"/>
<path d="M68.0611 64.3703L67.7 75.972L67.6365 78.038C67.6365 78.038 63.3589 77.6419 59.3671 77.2061C56.1529 76.8555 53.1233 76.4771 52.6571 76.2553C52.0619 75.976 50.7861 75.7601 49.7802 75.6234C49.0025 75.5184 48.3914 75.4629 48.3914 75.4629C48.3914 75.4629 48.1632 75.5303 47.8121 75.5937C47.0462 75.7323 45.701 75.8452 44.9174 75.1658C43.9154 74.2962 46.5482 71.1368 47.2049 70.3782L47.3498 70.2137L47.1018 67.9259L46.457 61.9933C46.457 61.9933 46.0602 58.5764 45.4649 56.7441C45.3058 56.2232 45.191 55.6898 45.1217 55.1496C44.9006 53.4761 45.0138 51.7755 45.455 50.146C45.6435 49.4536 45.7631 48.7443 45.8122 48.0285C45.9114 46.1962 51.5162 39.1148 52.9051 38.471C53.5298 38.1801 54.0326 37.6796 54.3256 37.0567C54.4224 36.8608 54.495 36.654 54.5419 36.4406C55.1371 33.8656 56.643 34.8877 56.643 34.8877C57.0061 36.9022 62.6268 42.2346 62.6268 42.2346L62.7379 42.3455C63.2955 42.916 65.7795 45.594 65.6029 47.8799C65.5676 48.7307 65.6949 49.5804 65.9779 50.3837C67.1212 53.9778 67.7784 57.7084 67.9321 61.4763L68.0611 64.3703Z" fill="#DCE6F2"/>
<path opacity="0.1" d="M60.0972 50.5936C60.0972 50.5936 58.7084 53.961 57.6667 54.5058C56.6251 55.0505 60.5932 55.6546 60.0972 50.5936Z" fill="black"/>
<path opacity="0.1" d="M61.1388 56.8828C61.1388 56.8828 57.9644 57.279 57.9644 57.8732C57.9644 58.4675 61.1388 56.8828 61.1388 56.8828Z" fill="black"/>
<path opacity="0.1" d="M64.4621 60.7454C64.4621 60.7454 59.8492 70.5505 58.5596 70.8476C57.27 71.1447 64.4621 60.7454 64.4621 60.7454Z" fill="black"/>
<path opacity="0.1" d="M62.5395 42.7317L58.7242 44.3877L54.1193 37.4429C54.216 37.247 54.2886 37.0402 54.3355 36.8269C54.9307 34.2518 56.4366 35.2739 56.4366 35.2739C56.7997 37.2884 62.4205 42.6208 62.4205 42.6208L62.5395 42.7317Z" fill="black"/>
<path d="M62.7379 42.3356L58.9226 43.9916L54.3176 37.0468C54.4144 36.8509 54.487 36.6441 54.5339 36.4308C55.1291 33.8557 56.635 34.8778 56.635 34.8778C56.9981 36.8923 62.6188 42.2247 62.6188 42.2247L62.7379 42.3356Z" fill="#DCE6F2"/>
<path opacity="0.1" d="M67.6365 78.0381C67.6365 78.0381 63.3589 77.6419 59.367 77.2061L66.5294 79.078V81.2569C66.2159 81.5402 65.9441 81.6868 65.7675 81.6115C64.9422 81.2648 58.2064 80.1754 58.2064 80.1754C58.2064 80.1754 54.2939 78.1946 50.0718 75.8176C49.9694 75.7609 49.87 75.6987 49.7742 75.6314C49.2819 75.2977 48.8577 74.8735 48.5243 74.3815C47.7446 73.2544 47.3636 71.8064 47.199 70.3861C47.1064 69.5722 47.0719 68.7527 47.0958 67.9339C47.1162 67.0054 47.2011 66.0795 47.3497 65.1627C46.9414 61.6119 46.7427 58.0403 46.7545 54.4662C46.8041 48.9199 52.0122 46.9391 52.0122 46.9391C61.5852 46.0972 58.6171 61.5477 58.6171 61.5477C58.6171 61.5477 58.0635 65.9055 57.9127 66.3512C57.7619 66.7969 57.2203 67.5397 57.2937 68.5796C57.3671 69.6196 59.1964 70.8635 59.1964 70.8635C59.1964 70.8635 60.982 71.6994 61.7181 72.9374C62.2538 73.8506 65.7338 75.0886 67.7 75.9721L67.6365 78.0381Z" fill="black"/>
<path opacity="0.1" d="M70.8428 25.546C70.8464 25.8722 70.7787 26.1954 70.6444 26.4928C70.5426 26.7355 70.4247 26.9711 70.2912 27.198C70.0824 27.6153 69.786 27.9828 69.4222 28.2756C68.9639 28.6024 68.3845 28.6935 67.835 28.8262C67.2854 28.959 66.714 29.1709 66.4005 29.6384C66.2306 29.9389 66.117 30.2678 66.0652 30.609C66.0127 30.9499 65.8763 31.2724 65.6684 31.5479C65.4457 31.8245 65.0639 31.9157 64.7399 31.7697C64.5739 31.6581 64.4481 31.4963 64.3808 31.3082C64.1546 30.7991 64.097 30.2346 64.0058 29.6859C63.9145 29.1372 63.7856 28.5727 63.4483 28.131C63.111 27.6892 62.5138 27.3981 61.9841 27.5704C61.6258 27.7081 61.3392 27.9856 61.1904 28.339C61.0438 28.689 60.9431 29.0565 60.8908 29.4324C60.6448 30.7767 60.3545 32.1131 60.0199 33.4416C60.0096 33.496 59.9873 33.5475 59.9544 33.5921C59.9016 33.6446 59.8304 33.6744 59.756 33.6753C59.3116 33.7347 58.885 33.4237 58.4366 33.4574C58.3904 33.4605 58.3446 33.4678 58.2997 33.4792C56.8147 30.9025 57.1008 27.6738 59.0159 25.3974L59.0517 25.3875C59.3499 25.2818 59.621 25.1113 59.8453 24.8884C60.1317 24.6022 60.3969 24.2957 60.6389 23.9712L60.7976 23.7731C61.2536 23.2246 61.7731 22.7319 62.3451 22.3054C62.5013 22.1776 62.6804 22.0808 62.8729 22.0201C63.0376 21.9881 63.2064 21.9827 63.3729 22.0043C64.0581 22.0864 64.7488 22.1122 65.4383 22.0815C65.9186 22.0061 66.4028 21.9572 66.8886 21.9349C68.1445 21.9706 69.2159 22.856 70.0095 23.8266C70.436 24.3238 70.817 24.8963 70.8428 25.546Z" fill="black"/>
<path d="M57.3592 26.6612C57.0834 27.1128 56.5854 27.4198 56.3989 27.9151C56.1251 28.6341 56.5874 29.5294 56.1628 30.1712C56.022 30.3871 55.7898 30.5476 55.7105 30.7952C55.5756 31.2131 55.9446 31.6588 55.8494 32.0887C55.7541 32.5185 55.1867 32.881 55.3375 33.3009C55.4266 33.4841 55.5829 33.6259 55.774 33.6971C56.0746 33.8693 56.4206 33.946 56.766 33.917C57.3076 33.8278 57.7104 33.297 58.26 33.2573C58.7064 33.2257 59.1329 33.5347 59.5774 33.4772C59.6518 33.4746 59.7226 33.4442 59.7758 33.392C59.8095 33.3479 59.8319 33.2962 59.8412 33.2415C60.1745 31.9143 60.4655 30.5779 60.7142 29.2323C60.7649 28.8564 60.8649 28.4887 61.0118 28.1389C61.1617 27.7863 61.4479 27.5092 61.8054 27.3703C62.3352 27.2 62.9304 27.4892 63.2696 27.9309C63.6089 28.3726 63.7379 28.9372 63.8291 29.4859C63.9204 30.0345 63.9779 30.5991 64.2021 31.1082C64.2703 31.297 64.3967 31.4593 64.5632 31.5717C64.8608 31.744 65.2616 31.6073 65.4898 31.3498C65.6988 31.0743 65.8352 30.7508 65.8866 30.4089C65.9383 30.0684 66.052 29.7401 66.2219 29.4403C66.5354 28.9728 67.1087 28.7609 67.6563 28.6282C68.2039 28.4954 68.7813 28.4023 69.2436 28.0755C69.6069 27.7831 69.9032 27.4163 70.1126 26.9999C70.4062 26.4889 70.68 25.9342 70.6562 25.3459C70.6304 24.7041 70.2495 24.1317 69.8427 23.6325C69.0491 22.6619 67.9758 21.7765 66.7199 21.7428C66.234 21.7631 65.7497 21.812 65.2695 21.8894C64.5801 21.9203 63.8892 21.8938 63.2042 21.8101C63.0376 21.7903 62.8689 21.7963 62.7042 21.828C62.5115 21.8867 62.3326 21.9838 62.1784 22.1132C61.6058 22.5391 61.0857 23.0311 60.6289 23.579C60.3344 23.9689 60.0149 24.3395 59.6726 24.6883C59.4482 24.9116 59.1772 25.0827 58.879 25.1894C58.6806 25.2449 58.4822 25.2053 58.2937 25.2667C57.7084 25.4509 57.631 26.2135 57.3592 26.6612Z" fill="#965D7B"/>
<path opacity="0.1" d="M76.4655 32.0471C74.8782 32.3383 73.5628 31.0567 72.8347 30.1218C72.6111 29.8378 72.4075 29.5387 72.2256 29.2264L77.6737 30.2525L77.894 30.2941C77.894 30.2941 78.8959 31.6034 76.4655 32.0471Z" fill="black"/>
<g opacity="0.1">
<path d="M55.9078 31.5222C55.9377 31.2632 55.8847 31.0025 55.753 30.7616C55.753 30.7814 55.7289 30.8012 55.7209 30.821C55.6061 31.0865 55.761 31.3618 55.8598 31.6371C55.881 31.6001 55.8971 31.5616 55.9078 31.5222Z" fill="black"/>
<path d="M56.3258 28.2797C56.2983 28.5536 56.3055 28.8288 56.3472 29.1017C56.3745 28.8278 56.3674 28.5526 56.3258 28.2797Z" fill="black"/>
<path d="M70.1007 26.4275C69.8919 26.8449 69.5955 27.2124 69.2317 27.5051C68.7734 27.8319 68.196 27.9231 67.6444 28.0558C67.0929 28.1885 66.5235 28.4004 66.21 28.8679C66.0404 29.1686 65.9268 29.4974 65.8747 29.8385C65.823 30.1803 65.6866 30.5037 65.4779 30.7794C65.2497 31.0369 64.8489 31.1756 64.5513 31.0013C64.3848 30.8889 64.2584 30.7266 64.1902 30.5378C63.966 30.0287 63.9065 29.4661 63.8172 28.9155C63.728 28.3648 63.595 27.8022 63.2577 27.3605C62.9205 26.9188 62.3233 26.6276 61.7935 26.7999C61.4356 26.9382 61.1493 27.2156 60.9999 27.5685C60.853 27.9183 60.753 28.286 60.7023 28.6619C60.455 30.0076 60.164 31.3439 59.8293 32.6711C59.82 32.7258 59.7976 32.7775 59.7639 32.8216C59.7107 32.8738 59.6399 32.9042 59.5655 32.9068C59.121 32.9643 58.6945 32.6553 58.2481 32.687C57.6985 32.7266 57.2957 33.2574 56.7541 33.3446C56.4086 33.3755 56.062 33.2987 55.7621 33.1247C55.6242 33.0655 55.5004 32.9777 55.399 32.8672C55.3049 33.0017 55.2779 33.1718 55.3256 33.3287C55.413 33.5132 55.5699 33.6556 55.7621 33.7249C56.062 33.8989 56.4086 33.9757 56.7541 33.9448C57.2957 33.8576 57.6985 33.3268 58.2481 33.2871C58.6945 33.2554 59.121 33.5645 59.5655 33.507C59.6399 33.5044 59.7107 33.474 59.7639 33.4218C59.7976 33.3777 59.82 33.326 59.8293 33.2713C60.1627 31.9507 60.4536 30.6143 60.7023 29.2621C60.753 28.8862 60.853 28.5185 60.9999 28.1687C61.1493 27.8158 61.4356 27.5384 61.7935 27.4001C62.3233 27.2278 62.9185 27.519 63.2577 27.9607C63.597 28.4024 63.726 28.967 63.8172 29.5156C63.9085 30.0643 63.966 30.6289 64.1902 31.1379C64.2584 31.3267 64.3848 31.4891 64.5513 31.6015C64.8489 31.7738 65.2497 31.6371 65.4779 31.3796C65.6866 31.1039 65.823 30.7805 65.8747 30.4387C65.9268 30.0976 66.0404 29.7687 66.21 29.4681C66.5235 29.0006 67.0969 28.7907 67.6444 28.656C68.192 28.5213 68.7694 28.4321 69.2317 28.1053C69.5955 27.8126 69.8919 27.445 70.1007 27.0277C70.3943 26.5187 70.6681 25.964 70.6443 25.3757C70.6404 25.3001 70.6325 25.2247 70.6205 25.1499C70.5248 25.6033 70.3487 26.0359 70.1007 26.4275Z" fill="black"/>
</g>
<path opacity="0.1" d="M70.6522 26.4869C71.161 27.3901 71.4626 28.3948 71.5351 29.4285C69.7673 28.438 68.1047 27.3506 67.2655 26.9722C65.8032 26.3126 60.3352 26.4117 58.2798 26.4731C58.4948 26.0896 58.7459 25.7274 59.0297 25.3915C59.4994 24.8346 60.0514 24.3523 60.6666 23.9614C62.3132 22.9181 64.3172 22.5972 66.208 23.0742C68.0988 23.5512 69.7096 24.784 70.6621 26.483L70.6522 26.4869Z" fill="black"/>
<path opacity="0.1" d="M76.9615 31.2073C76.0072 31.5004 74.4497 30.9339 72.8347 30.1218C72.6111 29.8378 72.4075 29.5387 72.2256 29.2264L77.6737 30.2525C78.0348 30.4981 78.1261 30.8487 76.9615 31.2073Z" fill="black"/>
<path d="M64.8847 19.6195C64.8847 19.6195 59.6766 19.3223 58.2124 22.145L57.9763 24.6468L57.5795 24.6032L57.5001 26.3048C57.5001 26.3048 65.4601 25.9581 67.2715 26.7742C69.0829 27.5903 74.7116 31.7025 76.9675 31.0092C79.2233 30.3159 76.7691 29.6722 76.7691 29.6722C76.7691 29.6722 73.664 28.3589 73.664 27.3288C73.664 26.2988 72.8942 20.8575 64.8847 19.6195Z" fill="#444053"/>
<path opacity="0.1" d="M54.8395 112.362C54.8395 112.362 58.1627 115.581 59.6012 115.333C59.6012 115.333 55.5339 114.986 54.8395 112.362Z" fill="black"/>
<path opacity="0.1" d="M54.1451 113.853C54.1451 113.853 54.4427 115.509 55.2364 115.347C56.03 115.185 54.1451 113.853 54.1451 113.853Z" fill="black"/>
<path opacity="0.1" d="M59.3532 141.529C59.3532 141.529 54.6351 145.194 55.4307 145.293C56.2263 145.392 59.3532 141.529 59.3532 141.529Z" fill="black"/>
<path d="M65.6644 68.7994L80.9415 66.3174V80.7576L66.4263 79.999L65.6644 68.7994Z" fill="#3652E3"/>
<path opacity="0.05" d="M65.6644 68.7994L80.9415 66.3174V80.7576L66.4263 79.999L65.6644 68.7994Z" fill="black"/>
<path d="M80.9414 66.3174L99.262 67.6861L98.2481 80.2525L80.9414 80.7576V66.3174Z" fill="#3652E3"/>
<path opacity="0.1" d="M80.9414 66.3174L99.262 67.6861L98.2481 80.2525L80.9414 80.7576V66.3174Z" fill="black"/>
<path d="M86.5741 61.9102L80.9414 66.3175L99.262 67.6862L102.256 63.1759L86.5741 61.9102Z" fill="#3652E3"/>
<path d="M60.1329 63.986L73.8863 62.3142L80.9415 66.3175L65.6644 68.7994L60.1329 63.986Z" fill="#3652E3"/>
<path d="M84.2905 70.0672V89.8101L77.1341 89.0772L74.0212 88.7602L73.0728 88.6612L69.9618 88.3423L65.6644 87.9025V68.7994L80.9395 69.8374L84.2905 70.0672Z" fill="#3652E3"/>
<path d="M99.262 67.6862V86.9398L93.5262 88.0392L90.7367 88.574L84.2905 89.81V70.0671L99.262 67.6862Z" fill="#3652E3"/>
<path opacity="0.05" d="M99.262 67.6862V86.9398L93.5262 88.0392L90.7367 88.574L84.2905 89.81V70.0671L99.262 67.6862Z" fill="black"/>
<path d="M60.1329 72.9552L65.6644 68.7994L84.2905 70.0672L81.5486 74.6785L60.1329 72.9552Z" fill="#3652E3"/>
<path opacity="0.1" d="M60.1329 72.9552L65.6644 68.7994L84.2905 70.0672L81.5486 74.6785L60.1329 72.9552Z" fill="white"/>
<path d="M99.262 67.6862L84.2905 70.0671L89.1633 74.4249L105.2 71.7389L99.262 67.6862Z" fill="#3652E3"/>
<path opacity="0.1" d="M99.262 67.6862L84.2905 70.0671L89.1633 74.4249L105.2 71.7389L99.262 67.6862Z" fill="white"/>
<path opacity="0.1" d="M93.5261 88.0392L90.7366 88.5741V84.4599L93.3495 83.8022L93.5261 88.0392Z" fill="white"/>
<path opacity="0.1" d="M77.1341 86.3555V89.0771L74.0211 88.7602V86.3555H77.1341Z" fill="white"/>
<path opacity="0.1" d="M73.0728 87.2131V88.6611L69.9618 88.3422V87.2131H73.0728Z" fill="white"/>
<path opacity="0.1" d="M82.4176 84.9115C80.2847 87.6351 73.2414 85.7533 73.2414 85.7533L68.0075 80.3021L67.2972 79.5632L68.6861 76.9882C68.6861 76.9882 69.0829 77.1189 69.7455 77.3487C73.2533 78.5728 84.2131 82.6197 82.4176 84.9115Z" fill="black"/>
<path d="M82.2192 84.5154C80.0864 87.239 73.043 85.3572 73.043 85.3572L67.8092 79.906L67.0989 79.1671L68.4877 76.592C68.4877 76.592 68.8845 76.7228 69.5472 76.9526C73.0549 78.1767 84.0147 82.2235 82.2192 84.5154Z" fill="#EFB7B9"/>
<path opacity="0.1" d="M69.5392 76.9526C69.2496 77.7845 68.5135 79.0166 67.8012 79.906L67.0909 79.1671L68.4798 76.592C68.4798 76.592 68.8786 76.7228 69.5392 76.9526Z" fill="black"/>
<path d="M52.2107 46.1467C52.2107 46.1467 47.0026 48.1276 46.953 53.6739C46.9412 57.2479 47.1399 60.8196 47.5482 64.3704C47.5482 64.3704 46.0602 72.6403 50.2763 75.0173C54.4923 77.3943 58.4108 79.3751 58.4108 79.3751C58.4108 79.3751 65.1466 80.4646 65.9739 80.8112C66.8013 81.1579 69.6762 76.701 69.2297 75.9582C68.7833 75.2154 62.6507 73.3831 61.9225 72.1451C61.1944 70.9071 59.4008 70.0732 59.4008 70.0732C59.4008 70.0732 57.5716 68.8272 57.4982 67.7873C57.4247 66.7473 57.9644 66.0045 58.1172 65.5588C58.2699 65.1132 58.8235 60.7553 58.8235 60.7553C58.8235 60.7553 61.7837 45.295 52.2107 46.1467Z" fill="#DCE6F2"/>
<path opacity="0.1" d="M54.5914 64.509C54.5914 64.509 47.5481 65.3014 48.0937 67.7774C48.0937 67.7774 50.7702 65.2796 54.5914 64.509Z" fill="black"/>
<path opacity="0.1" d="M54.5915 65.4994C54.5915 65.4994 50.5937 68.4211 51.3278 68.6192C52.0619 68.8173 54.5915 65.4994 54.5915 65.4994Z" fill="black"/>
<path opacity="0.1" d="M56.3772 66.6879C56.3772 66.6879 55.2364 68.736 55.8812 68.6291C56.526 68.5221 56.3772 66.6879 56.3772 66.6879Z" fill="black"/>
<path d="M129.711 22.2618C129.711 22.2618 122.172 21.8082 123.053 27.0891C123.053 27.0891 122.876 28.0221 123.723 28.446C123.723 28.446 123.737 28.0498 124.497 28.1865C124.768 28.2319 125.043 28.2452 125.316 28.2261C125.687 28.2014 126.04 28.056 126.32 27.8121C126.32 27.8121 128.441 26.9386 129.267 23.4761C129.267 23.4761 129.878 22.7194 129.862 22.5253L128.588 23.07C128.588 23.07 129.023 23.9871 128.679 24.7497C128.679 24.7497 128.64 23.1037 128.394 23.1413C128.344 23.1413 127.733 23.4602 127.733 23.4602C127.733 23.4602 128.481 25.0568 127.915 26.2195C127.915 26.2195 128.13 24.2506 127.499 23.5751L126.602 24.0981C126.602 24.0981 127.477 25.7481 126.884 27.095C126.884 27.095 127.036 25.029 126.414 24.2248L125.6 24.8567C125.6 24.8567 126.423 26.4849 125.921 27.6021C125.921 27.6021 125.856 25.1974 125.423 25.0152C125.423 25.0152 124.713 25.6411 124.606 25.8986C124.606 25.8986 125.168 27.0871 124.818 27.7032C124.818 27.7032 124.604 26.1007 124.422 26.0927C124.422 26.0927 123.713 27.1545 123.64 27.8755C123.674 27.2033 123.884 26.5518 124.249 25.9858C123.841 26.0629 123.464 26.2578 123.166 26.5464C123.166 26.5464 123.275 25.7956 124.424 25.7303C124.424 25.7303 125.019 24.9241 125.166 24.8745C125.166 24.8745 124.023 24.7795 123.33 25.0865C123.33 25.0865 123.939 24.3793 125.376 24.6903L126.169 24.0366C126.169 24.0366 124.666 23.8386 124.027 24.0584C124.027 24.0584 124.761 23.4325 126.386 23.8881L127.259 23.3671C127.259 23.3671 125.977 23.0898 125.213 23.1908C125.213 23.1908 126.019 22.757 127.515 23.2265L128.14 22.9472C128.14 22.9472 127.199 22.763 126.925 22.7333C126.652 22.7035 126.636 22.6283 126.636 22.6283C127.231 22.5294 127.841 22.598 128.4 22.8264C128.4 22.8264 129.739 22.345 129.711 22.2618Z" fill="#3652E3"/>
<path opacity="0.1" d="M152.619 48.6742C152.619 48.6742 145.079 48.2206 145.96 53.5015C145.96 53.5015 145.784 54.4344 146.631 54.8583C146.631 54.8583 146.645 54.4622 147.407 54.5988C147.677 54.6443 147.952 54.6576 148.226 54.6385C148.593 54.6119 148.941 54.4673 149.218 54.2264C149.218 54.2264 151.341 53.3509 152.166 49.8884C152.166 49.8884 152.775 49.1337 152.752 48.9396L151.478 49.4824C151.478 49.4824 151.912 50.3995 151.571 51.1621C151.571 51.1621 151.529 49.516 151.285 49.5537C151.236 49.5537 150.623 49.8726 150.623 49.8726C150.623 49.8726 151.373 51.4711 150.807 52.6319C150.807 52.6319 151.022 50.6629 150.389 49.9875L149.502 50.5045C149.502 50.5045 150.377 52.1545 149.783 53.5015C149.783 53.5015 149.936 51.4355 149.313 50.6312L148.502 51.2651C148.502 51.2651 149.323 52.8914 148.823 54.0085C148.823 54.0085 148.758 51.6038 148.325 51.4216C148.325 51.4216 147.615 52.0475 147.506 52.305C147.506 52.305 148.069 53.4935 147.72 54.1096C147.72 54.1096 147.506 52.5071 147.323 52.4992C147.323 52.4992 146.615 53.5609 146.542 54.2819C146.577 53.6096 146.788 52.9582 147.153 52.3922C146.744 52.4695 146.367 52.6643 146.067 52.9528C146.067 52.9528 146.179 52.202 147.327 52.1367C147.327 52.1367 147.913 51.3305 148.069 51.2809C148.069 51.2809 146.926 51.1859 146.234 51.4929C146.234 51.4929 146.843 50.7857 148.278 51.1066L149.071 50.453C149.071 50.453 147.565 50.2549 146.928 50.4748C146.928 50.4748 147.663 49.8488 149.287 50.3044L150.16 49.7834C150.16 49.7834 148.877 49.5081 148.113 49.6071C148.113 49.6071 148.92 49.1733 150.416 49.6428L151.041 49.3635C151.041 49.3635 150.101 49.1793 149.825 49.1496C149.549 49.1199 149.535 49.0446 149.535 49.0446C150.131 48.9457 150.743 49.0143 151.301 49.2427C151.301 49.2427 152.642 48.7574 152.619 48.6742Z" fill="#3652E3"/>
<path opacity="0.1" d="M106.817 43.9855C106.817 43.9855 108.553 36.6386 103.188 36.6129C103.188 36.6129 102.298 36.2801 101.736 37.0407C101.736 37.0407 102.119 37.1219 101.859 37.8469C101.769 38.1033 101.709 38.3692 101.681 38.6393C101.642 39.0075 101.725 39.3781 101.917 39.695C101.917 39.695 102.419 41.9334 105.686 43.3358C105.686 43.3358 106.329 44.0648 106.524 44.0727L106.206 42.7277C106.206 42.7277 105.226 42.9991 104.532 42.5296C104.532 42.5296 106.164 42.7693 106.166 42.5296C106.166 42.4801 105.968 41.8244 105.968 41.8244C105.968 41.8244 104.264 42.2879 103.212 41.5333C103.212 41.5333 105.119 42.08 105.895 41.5749L105.538 40.6003C105.538 40.6003 103.752 41.1807 102.53 40.3665C102.53 40.3665 104.544 40.8697 105.444 40.3943L104.958 39.4871C104.958 39.4871 103.212 40.0179 102.194 39.3345C102.194 39.3345 104.575 39.6792 104.833 39.287C104.833 39.287 104.337 38.4808 104.101 38.3303C104.101 38.3303 102.839 38.6828 102.284 38.2332C102.284 38.2332 103.901 38.2946 103.938 38.1242C103.938 38.1242 103.012 37.2467 102.306 37.0487C102.964 37.1983 103.572 37.5164 104.069 37.9717C104.062 37.5566 103.934 37.1525 103.7 36.809C103.7 36.809 104.423 37.0467 104.296 38.1956C104.296 38.1956 104.99 38.9087 105.012 39.0711C105.012 39.0711 105.299 37.9638 105.115 37.2289C105.115 37.2289 105.71 37.9499 105.149 39.3068L105.657 40.2081C105.657 40.2081 106.117 38.7621 106 38.0965C106 38.0965 106.494 38.9245 105.766 40.4458L106.133 41.3946C106.133 41.3946 106.623 40.1784 106.655 39.4138C106.655 39.4138 106.946 40.2814 106.226 41.6739L106.397 42.3355C106.397 42.3355 106.738 41.4421 106.813 41.1767C106.889 40.9113 106.966 40.9093 106.966 40.9093C106.963 41.5119 106.792 42.1018 106.472 42.6128C106.472 42.6128 106.732 43.9954 106.817 43.9855Z" fill="#3652E3"/>
<path opacity="0.1" d="M90.306 46.4893C90.306 46.4893 84.2508 41.967 82.0862 46.8656C82.0862 46.8656 81.4255 47.549 81.8997 48.3671C81.8997 48.3671 82.1259 48.0482 82.6933 48.5771C82.8943 48.7637 83.1167 48.926 83.356 49.0604C83.68 49.2405 84.0541 49.3101 84.4214 49.2585C84.4214 49.2585 86.6753 49.6923 89.2704 47.2539C89.2704 47.2539 90.1969 46.9567 90.2842 46.7824L88.9172 46.5427C88.9172 46.5427 88.7744 47.547 88.07 47.9967C88.07 47.9967 88.941 46.5982 88.7149 46.4972C88.6692 46.4754 87.9867 46.3981 87.9867 46.3981C87.9867 46.3981 87.7328 48.1452 86.6217 48.8049C86.6217 48.8049 87.8855 47.2776 87.7288 46.3665L86.6911 46.311C86.6911 46.311 86.5146 48.171 85.2765 48.9712C85.2765 48.9712 86.5404 47.3291 86.4669 46.315L85.4392 46.3981C85.4392 46.3981 85.2309 48.2066 84.1972 48.8643C84.1972 48.8643 85.465 46.8201 85.2051 46.4318C85.2051 46.4318 84.2666 46.5645 84.0345 46.719C84.0345 46.719 83.854 48.0145 83.2191 48.3433C83.2191 48.3433 83.9234 46.8874 83.7806 46.7864C83.7806 46.7864 82.604 47.2836 82.1417 47.8501C82.5416 47.3077 83.0764 46.8789 83.6933 46.6061C83.3095 46.4469 82.8875 46.4028 82.479 46.4794C82.479 46.4794 82.983 45.9128 83.979 46.4893C83.979 46.4893 84.9115 46.1387 85.0702 46.1822C85.0702 46.1822 84.1674 45.4751 83.4195 45.3523C83.4195 45.3523 84.3202 45.0948 85.342 46.1446L86.3717 46.0396C86.3717 46.0396 85.2269 45.0492 84.5702 44.8828C84.5702 44.8828 85.5285 44.762 86.6336 46.0337L87.6494 46.0792C87.6494 46.0792 86.7308 45.1443 86.0384 44.8075C86.0384 44.8075 86.9491 44.8868 87.9411 46.101L88.6176 46.21C88.6176 46.21 87.9331 45.5405 87.7189 45.3661C87.5046 45.1918 87.5344 45.1185 87.5344 45.1185C88.0863 45.3626 88.5596 45.7548 88.9014 46.2516C88.9014 46.2516 90.2803 46.5705 90.306 46.4893Z" fill="#3652E3"/>
<path opacity="0.1" d="M110.466 4.47403C110.466 4.47403 104.411 -0.0501783 102.246 4.85039C102.246 4.85039 101.585 5.53377 102.059 6.35186C102.059 6.35186 102.286 6.03294 102.853 6.56182C103.055 6.74754 103.278 6.90908 103.518 7.04317C103.842 7.22345 104.216 7.29301 104.583 7.24125C104.583 7.24125 106.837 7.67505 109.432 5.23467C109.432 5.23467 110.359 4.93953 110.444 4.76323L109.077 4.52751C109.077 4.52751 108.936 5.53179 108.23 5.98144C108.23 5.98144 109.103 4.58298 108.877 4.48196C108.831 4.46017 108.148 4.38291 108.148 4.38291C108.148 4.38291 107.887 6.13397 106.776 6.78962C106.776 6.78962 108.037 5.2624 107.883 4.35122L106.845 4.29576C106.845 4.29576 106.666 6.15575 105.43 6.95403C105.43 6.95403 106.694 5.31192 106.621 4.29774L105.595 4.38093C105.595 4.38093 105.385 6.19141 104.351 6.84904C104.351 6.84904 105.621 4.80483 105.361 4.41659C105.361 4.41659 104.422 4.5493 104.19 4.70381C104.19 4.70381 104.01 5.99927 103.375 6.32809C103.375 6.32809 104.079 4.87218 103.936 4.76918C103.936 4.76918 102.76 5.26834 102.298 5.83486C102.697 5.29186 103.232 4.86293 103.849 4.5909C103.465 4.43046 103.042 4.38638 102.633 4.46413C102.633 4.46413 103.139 3.89761 104.135 4.47403C104.135 4.47403 105.067 4.12144 105.226 4.167C105.226 4.167 104.323 3.45985 103.575 3.33506C103.575 3.33506 104.474 3.07953 105.496 4.12739L106.526 4.0224C106.526 4.0224 105.383 3.03199 104.724 2.86362C104.724 2.86362 105.682 2.74477 106.789 4.01646L107.805 4.06004C107.805 4.06004 106.887 3.12509 106.192 2.79033C106.192 2.79033 107.105 2.86956 108.097 4.08381L108.771 4.19275C108.771 4.19275 108.085 3.53116 107.871 3.36081C107.656 3.19046 107.686 3.11518 107.686 3.11518C108.238 3.35894 108.712 3.75124 109.053 4.24822C109.053 4.24822 110.432 4.5493 110.466 4.47403Z" fill="#3652E3"/>
<path opacity="0.1" d="M133.604 10.2046C133.604 10.2046 131.183 3.05181 126.618 5.8626C126.618 5.8626 125.685 6.06068 125.612 6.99365C125.612 6.99365 125.979 6.85896 126.142 7.61167C126.202 7.87942 126.293 8.13931 126.413 8.38618C126.577 8.7184 126.845 8.98872 127.175 9.15672C127.175 9.15672 128.786 10.7909 132.31 10.2501C132.31 10.2501 133.241 10.5314 133.411 10.4344L132.419 9.46176C132.419 9.46176 131.733 10.2085 130.895 10.1788C130.895 10.1788 132.409 9.52119 132.284 9.30924C132.258 9.26764 131.741 8.818 131.741 8.818C131.741 8.818 130.538 10.1115 129.249 10.0263C129.249 10.0263 131.155 9.48355 131.544 8.63972L130.723 8.00784C130.723 8.00784 129.52 9.43799 128.046 9.39442C128.046 9.39442 130.03 8.75857 130.532 7.87908L129.64 7.36605C129.64 7.36605 128.449 8.73876 127.215 8.69518C127.215 8.69518 129.421 7.73052 129.427 7.26305C129.427 7.26305 128.58 6.84113 128.3 6.83717C128.3 6.83717 127.415 7.80183 126.713 7.71467C126.713 7.71467 128.118 6.91244 128.058 6.74803C128.058 6.74803 126.808 6.4925 126.104 6.69851C126.741 6.47707 127.425 6.42585 128.088 6.54995C127.862 6.20112 127.538 5.92577 127.158 5.75762C127.158 5.75762 127.896 5.57736 128.39 6.61532C128.39 6.61532 129.358 6.855 129.461 6.97979C129.461 6.97979 129.12 5.88835 128.574 5.36145C128.574 5.36145 129.461 5.66056 129.703 7.10854L130.612 7.60375C130.612 7.60375 130.237 6.13596 129.784 5.62292C129.784 5.62292 130.643 6.06663 130.83 7.74043L131.643 8.3525C131.643 8.3525 131.417 7.061 131.036 6.39148C131.036 6.39148 131.743 6.97385 131.87 8.53672L132.364 9.00816C132.364 9.00816 132.181 8.06924 132.106 7.80381C132.03 7.53838 132.092 7.52055 132.092 7.52055C132.407 8.03441 132.574 8.62536 132.574 9.22803C132.574 9.22803 133.534 10.2561 133.604 10.2046Z" fill="#3652E3"/>
<path opacity="0.1" d="M117.807 10.5571C117.807 10.5571 110.287 9.72119 110.908 15.0476C110.908 15.0476 110.684 15.9707 111.503 16.4342C111.503 16.4342 111.537 16.0381 112.297 16.2163C112.566 16.274 112.84 16.3013 113.115 16.2975C113.486 16.2909 113.844 16.1636 114.136 15.9351C114.136 15.9351 116.301 15.1685 117.311 11.7515C117.311 11.7515 117.958 11.0285 117.944 10.8324L116.644 11.3118C116.644 11.3118 117.041 12.2487 116.644 12.9935C116.644 12.9935 116.686 11.3475 116.446 11.3732C116.396 11.3732 115.769 11.6584 115.769 11.6584C115.769 11.6584 116.436 13.2926 115.813 14.4316C115.813 14.4316 116.126 12.4745 115.529 11.7694L114.607 12.2448C114.607 12.2448 115.4 13.9384 114.735 15.2536C114.735 15.2536 114.993 13.1975 114.412 12.3636L113.569 12.9579C113.569 12.9579 114.307 14.6237 113.749 15.7152C113.749 15.7152 113.807 13.3105 113.384 13.1064C113.384 13.1064 112.642 13.7007 112.521 13.9463C112.521 13.9463 113.023 15.1546 112.644 15.7588C112.644 15.7588 112.511 14.1483 112.337 14.1325C112.337 14.1325 111.575 15.1566 111.464 15.8796C111.533 15.2093 111.776 14.5687 112.17 14.0216C111.758 14.0784 111.372 14.2539 111.059 14.5267C111.059 14.5267 111.206 13.7839 112.357 13.7759C112.357 13.7759 112.982 13.0014 113.15 12.9598C113.15 12.9598 112.013 12.8073 111.305 13.0787C111.305 13.0787 111.95 12.4013 113.366 12.7954L114.202 12.1834C114.202 12.1834 112.692 11.8783 112.053 12.0764C112.053 12.0764 112.819 11.4822 114.418 12.0269L115.317 11.5495C115.317 11.5495 114.049 11.2088 113.281 11.2702C113.281 11.2702 114.109 10.874 115.579 11.4227L116.218 11.1751C116.218 11.1751 115.287 10.9434 115.013 10.8998C114.739 10.8562 114.73 10.7809 114.73 10.7809C115.329 10.7122 115.936 10.811 116.483 11.0662C116.483 11.0662 117.821 10.6403 117.807 10.5571Z" fill="#3652E3"/>
<path opacity="0.1" d="M183.597 68.8271C183.597 68.8271 176.082 67.9912 176.703 73.3117C176.703 73.3117 176.479 74.2347 177.298 74.6983C177.298 74.6983 177.332 74.3021 178.092 74.4784C178.36 74.538 178.634 74.5653 178.909 74.5596C179.28 74.5539 179.639 74.4266 179.931 74.1971C179.931 74.1971 182.095 73.4305 183.095 70.0156C183.095 70.0156 183.742 69.2906 183.728 69.0965L182.429 69.5739C182.429 69.5739 182.826 70.5128 182.429 71.2576C182.429 71.2576 182.47 69.6095 182.23 69.6372C182.181 69.6372 181.554 69.9205 181.554 69.9205C181.554 69.9205 182.22 71.5547 181.597 72.6937C181.597 72.6937 181.911 70.7386 181.314 70.0314L180.391 70.5088C180.391 70.5088 181.185 72.2024 180.522 73.5177C180.522 73.5177 180.778 71.4616 180.197 70.6257L179.354 71.2199C179.354 71.2199 180.092 72.8858 179.534 73.9753C179.534 73.9753 179.592 71.5705 179.169 71.3685C179.169 71.3685 178.429 71.9627 178.306 72.2084C178.306 72.2084 178.81 73.4167 178.429 74.0208C178.429 74.0208 178.296 72.4104 178.121 72.3946C178.121 72.3946 177.36 73.4186 177.248 74.1416C177.317 73.4713 177.561 72.8307 177.955 72.2836C177.543 72.3394 177.156 72.5151 176.844 72.7887C176.844 72.7887 176.991 72.0439 178.141 72.036C178.141 72.036 178.768 71.2615 178.935 71.2219C178.935 71.2219 177.798 71.0674 177.09 71.3388C177.09 71.3388 177.735 70.6633 179.153 71.0575L179.986 70.4454C179.986 70.4454 178.494 70.1641 177.846 70.3583C177.846 70.3583 178.611 69.764 180.211 70.3068L181.109 69.8314C181.109 69.8314 179.842 69.4907 179.074 69.5521C179.074 69.5521 179.901 69.1559 181.371 69.7046L182.01 69.455C182.01 69.455 181.08 69.2232 180.806 69.1817C180.532 69.1401 180.522 69.0628 180.522 69.0628C181.122 68.9928 181.729 69.0909 182.276 69.3461C182.276 69.3461 183.617 68.9123 183.597 68.8271Z" fill="#3652E3"/>
<path opacity="0.1" d="M195.087 75.8354C195.087 75.8354 187.571 75.0014 188.192 80.32C188.192 80.32 187.97 81.243 188.788 81.7065C188.788 81.7065 188.821 81.3104 189.581 81.4887C189.849 81.5468 190.123 81.5734 190.397 81.5679C190.766 81.5603 191.123 81.4339 191.414 81.2074C191.414 81.2074 193.577 80.4408 194.577 77.0239C194.577 77.0239 195.226 76.3009 195.21 76.1048L193.91 76.5821C193.91 76.5821 194.307 77.5211 193.91 78.2658C193.91 78.2658 193.952 76.6198 193.712 76.6455C193.662 76.6455 193.035 76.9288 193.035 76.9288C193.035 76.9288 193.702 78.563 193.079 79.7019C193.079 79.7019 193.393 77.7469 192.795 77.0417L191.873 77.5171C191.873 77.5171 192.666 79.2107 192.004 80.526C192.004 80.526 192.26 78.4699 191.678 77.6359L190.835 78.2302C190.835 78.2302 191.573 79.8961 191.018 80.9875C191.018 80.9875 191.073 78.5808 190.651 78.3788C190.651 78.3788 189.911 78.973 189.788 79.2186C189.788 79.2186 190.291 80.4269 189.911 81.0311C189.911 81.0311 189.778 79.4207 189.603 79.4048C189.603 79.4048 188.841 80.4289 188.732 81.1519C188.801 80.4819 189.043 79.8414 189.436 79.2939C189.025 79.3507 188.638 79.5262 188.325 79.799C188.325 79.799 188.474 79.0542 189.625 79.0483C189.625 79.0483 190.25 78.2738 190.418 78.2322C190.418 78.2322 189.282 78.0796 188.573 78.351C188.573 78.351 189.218 77.6736 190.637 78.0678L191.47 77.4557C191.47 77.4557 189.978 77.1744 189.329 77.3685C189.329 77.3685 190.095 76.7743 191.694 77.319L192.593 76.8416C192.593 76.8416 191.325 76.5009 190.557 76.5623C190.557 76.5623 191.385 76.1662 192.855 76.7149L193.494 76.4673C193.494 76.4673 192.563 76.2355 192.291 76.1919C192.02 76.1483 192.006 76.0731 192.006 76.0731C192.605 76.0044 193.213 76.1031 193.76 76.3583C193.76 76.3583 195.107 75.9205 195.087 75.8354Z" fill="#3652E3"/>
<path opacity="0.1" d="M169.578 16.8047C169.578 16.8047 163.523 12.2825 161.358 17.1811C161.358 17.1811 160.698 17.8644 161.172 18.6825C161.172 18.6825 161.398 18.3636 161.965 18.8925C162.166 19.0792 162.389 19.2414 162.628 19.3758C162.952 19.5558 163.326 19.6254 163.693 19.5739C163.693 19.5739 165.947 20.0077 168.544 17.5693C168.544 17.5693 169.469 17.2722 169.556 17.0979L168.193 16.8522C168.193 16.8522 168.05 17.8565 167.346 18.3062C167.346 18.3062 168.217 16.9077 167.991 16.8067C167.945 16.7849 167.265 16.7076 167.265 16.7076C167.265 16.7076 167.009 18.4547 165.898 19.1143C165.898 19.1143 167.162 17.5871 167.005 16.6759L165.967 16.6205C165.967 16.6205 165.791 18.4805 164.553 19.2807C164.553 19.2807 165.818 17.6386 165.743 16.6244L164.715 16.7076C164.715 16.7076 164.517 18.5161 163.473 19.1738C163.473 19.1738 164.743 17.1296 164.481 16.7413C164.481 16.7413 163.543 16.874 163.311 17.0285C163.311 17.0285 163.132 18.324 162.497 18.6528C162.497 18.6528 163.199 17.1969 163.057 17.0959C163.057 17.0959 161.88 17.5931 161.418 18.1596C161.818 17.6172 162.353 17.1884 162.969 16.9156C162.586 16.7564 162.164 16.7123 161.755 16.7888C161.755 16.7888 162.261 16.2223 163.257 16.7988C163.257 16.7988 164.188 16.4481 164.346 16.4917C164.346 16.4917 163.444 15.7846 162.696 15.6618C162.696 15.6618 163.596 15.4043 164.618 16.4541L165.648 16.3491C165.648 16.3491 164.505 15.3587 163.846 15.1923C163.846 15.1923 164.805 15.0715 165.91 16.3432L166.927 16.3887C166.927 16.3887 166.007 15.4538 165.314 15.117C165.314 15.117 166.227 15.1963 167.217 16.4105L167.894 16.5195C167.894 16.5195 167.209 15.8499 166.995 15.6756C166.781 15.5013 166.812 15.4439 166.812 15.4439C167.364 15.6883 167.836 16.0805 168.177 16.5769C168.177 16.5769 169.552 16.8859 169.578 16.8047Z" fill="#3652E3"/>
<path opacity="0.1" d="M174.257 49.4527C174.257 49.4527 172.169 42.197 167.475 44.8017C167.475 44.8017 166.535 44.9463 166.418 45.8853C166.418 45.8853 166.791 45.7684 166.92 46.527C166.967 46.7996 167.047 47.0656 167.158 47.3194C167.305 47.6607 167.56 47.9446 167.884 48.1276C167.884 48.1276 169.419 49.8311 172.963 49.4507C172.963 49.4507 173.88 49.7716 174.054 49.6845L173.116 48.6663C173.116 48.6663 172.395 49.3834 171.562 49.316C171.562 49.316 173.102 48.7218 172.983 48.5099C172.959 48.4663 172.463 47.9929 172.463 47.9929C172.463 47.9929 171.205 49.2329 169.919 49.0883C169.919 49.0883 171.85 48.6327 172.274 47.8126L171.481 47.1431C171.481 47.1431 170.215 48.5178 168.745 48.4108C168.745 48.4108 170.745 47.8621 171.296 47.0084L170.427 46.4557C170.427 46.4557 169.167 47.773 167.945 47.6739C167.945 47.6739 170.193 46.8083 170.221 46.3428C170.221 46.3428 169.392 45.8833 169.112 45.8674C169.112 45.8674 168.185 46.7905 167.481 46.6716C167.481 46.6716 168.921 45.9328 168.87 45.7664C168.87 45.7664 167.632 45.4554 166.92 45.6277C167.565 45.4368 168.248 45.417 168.904 45.5703C168.694 45.2119 168.383 44.9227 168.011 44.7384C168.011 44.7384 168.757 44.5898 169.201 45.6495C169.201 45.6495 170.156 45.9308 170.255 46.0615C170.255 46.0615 169.963 44.9543 169.441 44.4056C169.441 44.4056 170.314 44.7423 170.491 46.2002L171.376 46.737C171.376 46.737 171.066 45.2514 170.638 44.7285C170.638 44.7285 171.475 45.2098 171.588 46.8895L172.382 47.5373C172.382 47.5373 172.213 46.2378 171.864 45.5564C171.864 45.5564 172.544 46.1705 172.6 47.7353L173.072 48.2306C173.072 48.2306 172.933 47.2837 172.874 47.0143C172.814 46.7449 172.874 46.7073 172.874 46.7073C173.167 47.2342 173.308 47.8323 173.28 48.4346C173.28 48.4346 174.185 49.5003 174.257 49.4527Z" fill="#3652E3"/>
<path opacity="0.1" d="M127.747 65.8024C127.747 65.8024 123.693 59.4281 119.93 63.2431C119.93 63.2431 119.069 63.6393 119.219 64.5802C119.219 64.5802 119.547 64.3623 119.884 65.0556C120.005 65.3013 120.156 65.5314 120.332 65.7409C120.569 66.0269 120.893 66.2274 121.255 66.3114C121.255 66.3114 123.209 67.5158 126.503 66.153C126.503 66.153 127.473 66.2045 127.616 66.0717L126.425 65.3586C126.425 65.3586 125.935 66.25 125.116 66.4184C125.116 66.4184 126.429 65.428 126.253 65.2457C126.219 65.2101 125.608 64.8971 125.608 64.8971C125.608 64.8971 124.749 66.4382 123.475 66.662C123.475 66.662 125.199 65.6815 125.378 64.7743L124.427 64.3563C124.427 64.3563 123.6 66.0301 122.16 66.3372C122.16 66.3372 123.926 65.2497 124.213 64.2751L123.221 63.9899C123.221 63.9899 122.384 65.6082 121.184 65.8558C121.184 65.8558 123.096 64.394 122.991 63.9384C122.991 63.9384 122.066 63.7304 121.801 63.7938C121.801 63.7938 121.172 64.9407 120.461 65.0239C120.461 65.0239 121.636 63.9107 121.539 63.7641C121.539 63.7641 120.263 63.8136 119.628 64.1801C120.194 63.8137 120.847 63.602 121.521 63.566C121.219 63.2809 120.841 63.0902 120.432 63.0173C120.432 63.0173 121.104 62.6667 121.82 63.5581C121.82 63.5581 122.812 63.5581 122.949 63.6571C122.949 63.6571 122.354 62.6667 121.701 62.2963C121.701 62.2963 122.634 62.3755 123.213 63.7245L124.215 63.9899C124.215 63.9899 123.499 62.6528 122.941 62.2705C122.941 62.2705 123.88 62.4964 124.461 64.079L125.398 64.4752C125.398 64.4752 124.87 63.2768 124.34 62.7162C124.34 62.7162 125.166 63.1124 125.66 64.6L126.255 64.9427C126.255 64.9427 125.858 64.0731 125.717 63.8334C125.576 63.5937 125.632 63.5383 125.632 63.5383C126.061 63.9617 126.364 64.4959 126.507 65.0813C126.507 65.0813 127.693 65.8697 127.747 65.8024Z" fill="#3652E3"/>
<path d="M154.386 33.2337C154.386 33.2337 150.531 26.7386 146.649 30.4348C146.649 30.4348 145.776 30.8112 145.899 31.7501C145.899 31.7501 146.23 31.5401 146.547 32.2433C146.661 32.4933 146.804 32.7287 146.974 32.9445C147.202 33.2366 147.52 33.4455 147.879 33.5388C147.879 33.5388 149.793 34.8025 153.129 33.5388C153.129 33.5388 154.097 33.62 154.244 33.4912L153.079 32.7425C153.079 32.7425 152.563 33.616 151.738 33.7606C151.738 33.7606 153.081 32.8039 152.912 32.6236C152.877 32.586 152.277 32.2532 152.277 32.2532C152.277 32.2532 151.371 33.7685 150.095 33.9528C150.095 33.9528 151.849 33.0257 152.053 32.1264L151.117 31.6867C151.117 31.6867 150.238 33.3367 148.787 33.6002C148.787 33.6002 150.587 32.5682 150.904 31.6035L149.924 31.2866C149.924 31.2866 149.035 32.8712 147.829 33.0891C147.829 33.0891 149.785 31.6867 149.694 31.2291C149.694 31.2291 148.778 30.9914 148.504 31.0469C148.504 31.0469 147.839 32.174 147.127 32.2354C147.127 32.2354 148.335 31.1618 148.244 31.0112C148.244 31.0112 146.966 31.0211 146.321 31.3678C146.899 31.0199 147.558 30.8287 148.232 30.8131C147.939 30.5187 147.566 30.3163 147.159 30.2308C147.159 30.2308 147.843 29.9 148.547 30.8131C148.547 30.8131 149.539 30.8468 149.672 30.9478C149.672 30.9478 149.111 29.9574 148.468 29.5494C148.468 29.5494 149.397 29.6563 149.934 31.0231L150.926 31.3202C150.926 31.3202 150.254 29.9614 149.706 29.5613C149.706 29.5613 150.639 29.8168 151.17 31.4153L152.093 31.8452C152.093 31.8452 151.603 30.6309 151.101 30.0624C151.101 30.0624 151.912 30.4843 152.363 31.9858L152.944 32.3463C152.944 32.3463 152.571 31.4648 152.44 31.2212C152.309 30.9776 152.365 30.9241 152.365 30.9241C152.781 31.3605 153.067 31.9036 153.192 32.4929C153.192 32.4929 154.329 33.2991 154.386 33.2337Z" fill="#3652E3"/>
<path d="M129.997 46.8915C129.997 46.8915 130.195 39.3446 124.943 40.4083C124.943 40.4083 124.003 40.2637 123.606 41.1234C123.606 41.1234 124.003 41.1234 123.892 41.886C123.855 42.1579 123.851 42.4332 123.88 42.706C123.916 43.0761 124.073 43.4242 124.326 43.6965C124.326 43.6965 125.273 45.7842 128.767 46.4934C128.767 46.4934 129.542 47.0777 129.737 47.046L129.142 45.7941C129.142 45.7941 128.239 46.2577 127.463 45.9427C127.463 45.9427 129.11 45.8456 129.064 45.604C129.064 45.5545 128.723 44.9523 128.723 44.9523C128.723 44.9523 127.148 45.7545 125.967 45.2276C125.967 45.2276 127.951 45.3762 128.6 44.7245L128.046 43.847C128.046 43.847 126.423 44.774 125.054 44.2273C125.054 44.2273 127.128 44.3105 127.913 43.6628L127.253 42.8704C127.253 42.8704 125.652 43.746 124.517 43.2825C124.517 43.2825 126.921 43.1379 127.096 42.7001C127.096 42.7001 126.445 42.0127 126.183 41.9078C126.183 41.9078 125.021 42.502 124.386 42.1811C124.386 42.1811 125.973 41.9157 125.983 41.7394C125.983 41.7394 124.898 41.0679 124.166 41.0184C124.841 41.0304 125.501 41.2189 126.08 41.5651C125.99 41.1602 125.783 40.7905 125.485 40.5014C125.485 40.5014 126.241 40.5866 126.344 41.7295C126.344 41.7295 127.171 42.2881 127.225 42.4426C127.225 42.4426 127.282 41.2996 126.951 40.6182C126.951 40.6182 127.681 41.2026 127.407 42.6446L128.088 43.4251C128.088 43.4251 128.243 41.9157 127.995 41.2878C127.995 41.2878 128.646 41.9989 128.245 43.635L128.794 44.4888C128.794 44.4888 129.028 43.1993 128.903 42.4406C128.903 42.4406 129.364 43.2329 128.943 44.7403L129.245 45.3544C129.245 45.3544 129.397 44.4095 129.417 44.1342C129.437 43.8589 129.513 43.8411 129.513 43.8411C129.632 44.432 129.585 45.0444 129.376 45.6099C129.376 45.6099 129.909 46.9173 129.997 46.8915Z" fill="#3652E3"/>
<ellipse opacity="0.1" cx="138.679" cy="141.886" rx="5.343" ry="0.901277" fill="#3652E3"/>
<ellipse opacity="0.1" cx="119.202" cy="155.57" rx="5.343" ry="0.901277" fill="#3652E3"/>
<ellipse opacity="0.1" cx="18.4801" cy="148.559" rx="5.343" ry="0.901277" fill="#3652E3"/>
<ellipse opacity="0.1" cx="159.727" cy="154.668" rx="5.343" ry="0.901277" fill="#3652E3"/>
<ellipse cx="165.291" cy="143.233" rx="7.9778" ry="1.34696" fill="#3652E3"/>
<path d="M168.598 141.028C168.962 140.733 169.227 140.333 169.358 139.883C169.457 139.428 169.263 138.883 168.828 138.717C168.34 138.531 167.818 138.867 167.421 139.208C167.025 139.549 166.574 139.939 166.056 139.868C166.597 139.377 166.841 138.64 166.699 137.924C166.677 137.779 166.615 137.642 166.521 137.528C166.249 137.239 165.759 137.364 165.433 137.592C164.402 138.317 164.114 139.715 164.108 140.975C164.005 140.521 164.092 140.048 164.09 139.588C164.088 139.129 163.959 138.598 163.565 138.356C163.322 138.221 163.048 138.153 162.771 138.158C162.307 138.142 161.789 138.188 161.473 138.527C161.077 138.947 161.182 139.654 161.523 140.111C161.864 140.569 162.386 140.864 162.866 141.185C163.25 141.414 163.579 141.726 163.826 142.098C163.855 142.15 163.878 142.204 163.896 142.26H166.804C167.456 141.933 168.059 141.519 168.598 141.028Z" fill="#3652E3"/>
<path d="M14.8929 144.37C14.8929 144.37 17.9384 144.277 18.861 143.623C19.7836 142.969 23.5493 142.191 23.7774 143.239C24.0056 144.287 28.3566 148.446 24.9163 148.474C21.476 148.502 16.9226 147.939 16.006 147.381C15.0894 146.822 14.8929 144.37 14.8929 144.37Z" fill="#A8A8A8"/>
<path opacity="0.2" d="M24.9738 148.11C21.5335 148.137 16.9801 147.575 16.0635 147.016C15.3651 146.592 15.0874 145.069 14.9941 144.366H14.8929C14.8929 144.366 15.0913 146.82 16.002 147.377C16.9127 147.933 21.472 148.498 24.9123 148.47C25.9043 148.47 26.2476 148.11 26.2297 147.587C26.0908 147.906 25.7119 148.104 24.9738 148.11Z" fill="black"/>
<defs>
<linearGradient id="paint0_linear_348_122" x1="44.2428" y1="152.623" x2="106.17" y2="152.623" gradientUnits="userSpaceOnUse">
<stop stop-color="#808080" stop-opacity="0.25"/>
<stop offset="0.54" stop-color="#808080" stop-opacity="0.12"/>
<stop offset="1" stop-color="#808080" stop-opacity="0.1"/>
</linearGradient>
</defs>
</svg>
